<?xml version="1.0" encoding="utf-8"?>
<!-- Generator: Adobe Illustrator 26.0.2, SVG Export Plug-In . SVG Version: 6.00 Build 0)  -->
<svg version="1.1" id="Laag_1" xmlns="http://www.w3.org/2000/svg" xmlns:xlink="http://www.w3.org/1999/xlink" x="0px" y="0px"
	 viewBox="0 0 210.7 153.9" style="enable-background:new 0 0 210.7 153.9;" xml:space="preserve">
<style type="text/css">
	.st0{fill:#F3F3F3;}
	.st1{fill:#FFFFFF;}
	.st2{fill:#A67C52;}
	.st3{fill:#8C6239;}
	.st4{fill:#603813;}
	.st5{fill:#754C24;}
	.st6{fill:#C69C6D;}
	.st7{fill:#603813;stroke:#000000;stroke-width:4;stroke-linejoin:round;stroke-miterlimit:10;}
	.st8{fill:#754C24;stroke:#000000;stroke-width:4;stroke-linejoin:round;stroke-miterlimit:10;}
	.st9{fill:#333333;stroke:#000000;stroke-width:3;stroke-miterlimit:10;}
	.st10{fill:none;stroke:#000000;stroke-width:24;stroke-miterlimit:10;}
	.st11{fill:#808080;}
	.st12{fill:#0071BC;}
	.st13{fill:#B3B3B3;}
	.st14{clip-path:url(#XMLID_00000152963872060843699620000012274943976498894514_);}
	.st15{fill:#29ABE2;}
	.st16{clip-path:url(#XMLID_00000163044069165504840080000006004603008360739507_);}
	.st17{fill:none;stroke:#F5F5F5;stroke-miterlimit:10;}
	.st18{fill:none;stroke:#CCCCCC;stroke-miterlimit:10;}
	.st19{fill:#333333;}
	.st20{fill:none;}
	.st21{fill:#42210B;}
	.st22{fill:#42210B;stroke:#000000;stroke-width:4;stroke-linejoin:round;stroke-miterlimit:10;}
	.st23{fill:#C69C6D;stroke:#000000;stroke-width:4;stroke-linejoin:round;stroke-miterlimit:10;}
	.st24{fill:#A67C52;stroke:#000000;stroke-width:4;stroke-linejoin:round;stroke-miterlimit:10;}
	.st25{fill:#8C6239;stroke:#000000;stroke-width:4;stroke-linejoin:round;stroke-miterlimit:10;}
	.st26{fill:none;stroke:#606060;stroke-width:0.9093;stroke-miterlimit:10;}
	.st27{fill:none;stroke:#606060;stroke-width:0.9479;stroke-miterlimit:10;}
</style>
<path class="st1" d="M159.4,102.6c6.6,0,11.8-1.2,15.3-2.3c3.4-1.1,12.6-4.3,21-12.7c3.2-3.2,5.9-6.7,8.2-10.6
	c4.4-7.5,6.9-16.3,6.9-25.7c0-14.2-5.7-27-15-36.3c-9.3-9.3-22.1-15-36.3-15c-14.2,0-27,5.7-36.3,15c-9.3,9.3-15,22.1-15,36.3v51.3
	c0,0.1,0,0.2,0,0.2h0v51.1h51.1v0c0.1,0,0.2,0,0.2,0c0.1,0,0.2,0,0.2,0v0h51.1v0C193.6,136.8,176.5,119.7,159.4,102.6z"/>
<path class="st1" d="M95.7,77c4.4,7.5,6.9,16.3,6.9,25.7c0,0.1,0,0.2,0,0.2v0c0,9.3-2.6,18-6.9,25.5c-2.2,3.8-5,7.4-8.1,10.5
	c-9.2,9.2-22,15-36,15c-0.1,0-0.2,0-0.2,0c-0.1,0-0.2,0-0.2,0c-14.1-0.1-26.8-5.8-36-15c-3.1-3.1-5.9-6.7-8.1-10.5
	C2.6,120.9,0,112.2,0,102.8v0c17.2,0,34.4,0,51.5,0c-16.8-2.1-29.9-8.6-36.5-15.3C10.2,82.8,6.9,77,6.9,77C2.5,69.4,0,60.6,0,51.3
	c0-14.2,5.7-27,15-36.3C24.3,5.7,37.1,0,51.3,0c14.2,0,27,5.7,36.3,15c9.3,9.3,15,22.1,15,36.3c-17.1,0-34.2,0-51.3,0
	c6.5,0,11.7,1.2,15.1,2.3c3.4,1,12.7,4.3,21.2,12.8C90.7,69.5,93.5,73.1,95.7,77z"/>
</svg>
