<?xml version="1.0" encoding="utf-8"?>
<!-- Generator: Adobe Illustrator 26.0.2, SVG Export Plug-In . SVG Version: 6.00 Build 0)  -->
<svg version="1.1" id="Laag_1" xmlns="http://www.w3.org/2000/svg" xmlns:xlink="http://www.w3.org/1999/xlink" x="0px" y="0px"
	 viewBox="0 0 401.4 99.3" style="enable-background:new 0 0 401.4 99.3;" xml:space="preserve">
<style type="text/css">
	.st0{enable-background:new    ;}
</style>
<g>
	<g class="st0">
		<path d="M21.2,0.5h2.6c9,0,15.5,3.1,19.4,9.4c1.2,3.3,1.9,8,1.9,14V30H26.2V19.2c0-5-0.6-7.5-1.7-7.5c-0.2-0.1-0.4-0.2-0.7-0.2
			h-1.5c-1.8,0-2.7,1.7-2.7,5.1v35c0,3,0.6,4.6,1.7,4.9c0.6,0.1,1.1,0.2,1.5,0.2h0.5c1.9,0,2.9-1.9,2.9-5.8V40.5h18.9v2.7
			c0,9-1.1,14.7-3.2,16.9c-4.4,5.1-10.4,7.7-18.1,7.7h-1.9c-8.2,0-14.2-2.4-18.1-7.2c-2.3-2-3.4-9.5-3.4-22.3v-6.8
			C0.4,18.9,0.9,12,2,10.9c1.9-4,5.4-7,10.4-8.9C15.4,1,18.4,0.5,21.2,0.5z"/>
		<path d="M58.9,1.4H86c0.3,0,0.6,1.8,1,5.5c0.5,1.9,3.8,21.7,9.9,59.5H79.6c-0.3,0-0.6-1.9-0.9-5.6c-0.1,0-0.4-2.2-0.9-6.5h-6.3V54
			c0.3-4.2,0.7-7.8,1.2-10.7h3.8c0-0.5-1.1-9.4-3.2-26.9h-0.2c0,0.9-2,17.5-6,50H49.4C49.4,65.8,52.6,44.2,58.9,1.4z"/>
		<path d="M101,1.5h18.8v51.7h11.4v13.1h-30l-0.3-0.2l0.2-0.3L101,1.5L101,1.5z"/>
	</g>
	<g class="st0">
		<path d="M135.5,1.5h18.8v51.7h11.4v13.1h-30l-0.3-0.2l0.2-0.3L135.5,1.5L135.5,1.5z"/>
	</g>
	<g class="st0">
		<path d="M178.8,7.9h0.8c5.3,0,8.9,2,10.9,6.1c0.5,1,0.8,4.1,0.8,9.4v6.4c0,6.2-0.4,9.7-1.2,10.5c-2.2,3.4-5.5,5.1-10,5.1h-1.7
			c-4.2,0-7.4-1.5-9.7-4.5c-1-1.3-1.5-4-1.5-8.2V21.4c0-4.4,0.4-7.2,1.1-8.3C170.2,9.6,173.8,7.9,178.8,7.9z M177.4,35.6
			c0,2.5,0.3,3.7,0.9,3.7l0.6,0.1h0.4c0.9,0,1.3-0.9,1.3-2.8c0.1-0.4,0.1-1.4,0.1-2.9V18.8c0-3-0.2-4.4-0.6-4.4c0-0.2-0.3-0.3-1-0.4
			c-1.1,0-1.6,1-1.6,2.9L177.4,35.6L177.4,35.6z"/>
	</g>
	<g class="st0">
		<path d="M193.2,8.6h17.7v7.3h-7.2v6.8h6.4v6.7c0,0.1-0.1,0.2-0.2,0.2h-6.2v15.1h-10.5V8.6z"/>
	</g>
	<g class="st0">
		<path d="M216.3,1.6h22.3c0.1,0,0.2,0.1,0.2,0.2c0.1,0,0.2-0.1,0.2-0.2c7.4,0.5,11.7,1.1,12.8,2c2.6,0.8,4.8,2.5,6.5,5.1
			c1.2,1.7,1.9,6.7,1.9,15v23.4c0,8.6-0.9,13.4-2.6,14.7c-2,3.1-7.2,4.6-15.7,4.6h-25.6L216.3,1.6L216.3,1.6z M235.4,12.7v42.5h1
			c3,0,4.4-1.3,4.4-3.9c0.2-1.6,0.3-4.1,0.3-7.7V22.9c0-6-0.4-9-1.2-9C240,13.3,238.5,12.9,235.4,12.7z"/>
	</g>
	<g class="st0">
		<path d="M264.1,1.4h18.8v49.1c0,4,0.7,6,2,6h0.5c1.7,0,2.6-1.4,2.6-4.1c0.1-0.7,0.2-2.2,0.2-4.4V1.4H307v44.8
			c0,5.9-0.5,9.8-1.4,11.6c-3.5,6.5-9.9,9.7-19.3,9.7h-0.2c-10.9-0.3-17.8-3.7-20.8-10.4c-0.8-1.5-1.2-5.5-1.2-12.1V1.4z"/>
		<path d="M311.4,1.4H352c0.2,0,0.3,0.1,0.3,0.3v12.8h-11.1v51.8h-18.8c-0.2,0-0.3-0.1-0.3-0.3V14.5H311V1.7
			C311.1,1.5,311.2,1.4,311.4,1.4z"/>
		<path d="M357.4,0.8h16.7c0.3,0,2,4.9,4.9,14.8c5.1,15.4,8,24.4,8.7,27.1V66c0,0.2-0.1,0.3-0.3,0.3h-16.9c-0.2,0-0.3-0.1-0.3-0.3
			V43c0-0.1,0.1-0.2,0.2-0.2L357,1L357.4,0.8z M401,0.8c0.2,0,0.3,0.1,0.3,0.3C396,17,392,29.2,389.4,37.6h-0.3
			c-0.9-3.1-3.5-11.2-7.8-24.4c1-4.8,2-8.9,2.9-12.4C384.2,0.8,401,0.8,401,0.8z"/>
	</g>
	<g class="st0">
		<path d="M9,94.5c0.5,0,1,0,1.3-0.1c0.4-0.1,0.7-0.2,1-0.3c0.3-0.1,0.5-0.3,0.7-0.4c0.2-0.1,0.4-0.3,0.5-0.4
			c0.1-0.1,0.3-0.2,0.4-0.3s0.2-0.1,0.4-0.1c0.1,0,0.2,0,0.3,0.1s0.1,0.1,0.2,0.1l1.1,1.4c-0.8,0.9-1.7,1.6-2.8,2.1
			c-1.1,0.5-2.3,0.7-3.7,0.7c-1.1,0-2.1-0.2-3-0.6c-0.9-0.4-1.6-0.9-2.2-1.6c-0.6-0.7-1.1-1.5-1.4-2.5s-0.5-2-0.5-3.1
			c0-1,0.1-2,0.3-3c0.2-0.9,0.5-1.8,1-2.6c0.4-0.8,0.9-1.5,1.5-2.1s1.2-1.2,1.9-1.6s1.5-0.8,2.3-1c0.8-0.2,1.7-0.4,2.6-0.4
			c0.7,0,1.3,0.1,1.8,0.2s1,0.3,1.5,0.5c0.4,0.2,0.8,0.5,1.2,0.8c0.4,0.3,0.7,0.6,1,1l-1.1,1.4c-0.1,0.1-0.2,0.2-0.3,0.3
			S14.8,83,14.6,83c-0.2,0-0.4-0.1-0.5-0.2c-0.2-0.2-0.4-0.3-0.6-0.5c-0.3-0.2-0.6-0.3-1-0.5s-0.9-0.2-1.6-0.2
			c-0.9,0-1.7,0.2-2.4,0.5c-0.7,0.4-1.4,0.9-1.9,1.5s-1,1.5-1.3,2.4c-0.3,0.9-0.5,2-0.5,3.1c0,0.8,0.1,1.6,0.3,2.3
			c0.2,0.7,0.5,1.2,0.9,1.7c0.4,0.5,0.8,0.8,1.3,1.1S8.4,94.5,9,94.5z"/>
		<path d="M20.9,86.4c0.6-0.8,1.3-1.4,2-1.8c0.7-0.4,1.5-0.6,2.2-0.6c0.5,0,1,0.1,1.5,0.3c0.4,0.2,0.8,0.5,1.1,0.9s0.5,0.9,0.6,1.5
			c0.1,0.6,0.1,1.3,0,2.1l-1,8.2h-3.1l1-8.2c0.1-0.8,0.1-1.4-0.1-1.8c-0.2-0.4-0.6-0.6-1.1-0.6c-0.3,0-0.6,0.1-1,0.3
			c-0.3,0.2-0.7,0.4-1,0.8c-0.3,0.3-0.6,0.7-0.9,1.2c-0.3,0.5-0.5,1-0.7,1.6l-0.8,6.7h-3.1l2.3-18.6h3.1L20.9,86.4z"/>
		<path d="M37.7,94.4c-0.6,0.9-1.2,1.6-1.9,2.1c-0.7,0.5-1.5,0.8-2.3,0.8c-0.5,0-0.9-0.1-1.4-0.3c-0.4-0.2-0.8-0.5-1.1-0.9
			c-0.3-0.4-0.6-0.9-0.7-1.4c-0.2-0.6-0.3-1.2-0.3-2s0.1-1.5,0.3-2.2c0.2-0.7,0.5-1.4,0.8-2c0.4-0.6,0.8-1.2,1.3-1.8
			c0.5-0.5,1.1-1,1.7-1.4s1.3-0.7,2-0.9c0.7-0.2,1.5-0.3,2.3-0.3c0.6,0,1.2,0,1.7,0.1c0.6,0.1,1.1,0.2,1.7,0.5l-1.5,12.5h-1.6
			c-0.4,0-0.7-0.1-0.8-0.3s-0.2-0.4-0.2-0.7L37.7,94.4z M38.5,86.3c-0.1,0-0.2,0-0.3,0c-0.1,0-0.2,0-0.3,0c-0.7,0-1.3,0.2-1.9,0.5
			c-0.6,0.3-1.1,0.7-1.5,1.3c-0.4,0.5-0.8,1.2-1,1.9c-0.2,0.7-0.4,1.5-0.4,2.3c0,0.9,0.1,1.6,0.4,2s0.7,0.6,1.2,0.6
			c0.3,0,0.7-0.1,1-0.4c0.3-0.2,0.6-0.6,0.9-1c0.3-0.4,0.6-0.9,0.8-1.5c0.2-0.6,0.5-1.2,0.6-1.8L38.5,86.3z"/>
		<path d="M47.1,87.3c0.3-0.6,0.7-1.2,1-1.6c0.4-0.5,0.8-0.8,1.2-1.1c0.4-0.3,0.8-0.4,1.2-0.5c0.4,0,0.9,0,1.3,0.2l-0.6,3
			c-1-0.4-1.9-0.3-2.7,0.3c-0.8,0.6-1.4,1.9-1.8,3.7l-0.7,5.7h-3l1.6-12.9h1.6c0.3,0,0.6,0.1,0.8,0.2c0.2,0.2,0.3,0.4,0.3,0.8
			L47.1,87.3z"/>
		<path d="M59.1,94.4c-0.6,0.9-1.2,1.6-1.9,2.1c-0.7,0.5-1.5,0.8-2.3,0.8c-0.5,0-0.9-0.1-1.4-0.3c-0.4-0.2-0.8-0.5-1.1-0.9
			c-0.3-0.4-0.6-0.9-0.7-1.4c-0.2-0.6-0.3-1.2-0.3-2s0.1-1.5,0.3-2.2c0.2-0.7,0.5-1.4,0.8-2c0.4-0.6,0.8-1.2,1.3-1.8
			c0.5-0.5,1.1-1,1.7-1.4s1.3-0.7,2-0.9c0.7-0.2,1.5-0.3,2.3-0.3c0.6,0,1.2,0,1.7,0.1c0.6,0.1,1.1,0.2,1.7,0.5l-1.5,12.5H60
			c-0.4,0-0.7-0.1-0.8-0.3S59,96.4,59,96.1L59.1,94.4z M59.9,86.3c-0.1,0-0.2,0-0.3,0c-0.1,0-0.2,0-0.3,0c-0.7,0-1.3,0.2-1.9,0.5
			c-0.6,0.3-1.1,0.7-1.5,1.3c-0.4,0.5-0.8,1.2-1,1.9c-0.2,0.7-0.4,1.5-0.4,2.3c0,0.9,0.1,1.6,0.4,2s0.7,0.6,1.2,0.6
			c0.3,0,0.7-0.1,1-0.4c0.3-0.2,0.6-0.6,0.9-1c0.3-0.4,0.6-0.9,0.8-1.5c0.2-0.6,0.5-1.2,0.6-1.8L59.9,86.3z"/>
		<path d="M73.1,96c-0.4,0.3-0.8,0.6-1.2,0.8c-0.4,0.2-0.8,0.3-1.3,0.4c-0.4,0.1-0.9,0.1-1.4,0.1c-0.7,0-1.4-0.1-2-0.4
			c-0.6-0.3-1.1-0.6-1.5-1.1c-0.4-0.5-0.7-1-0.9-1.7c-0.2-0.7-0.3-1.4-0.3-2.2c0-0.7,0.1-1.4,0.2-2c0.1-0.7,0.4-1.3,0.7-1.9
			s0.6-1.1,1-1.6s0.9-0.9,1.4-1.3c0.5-0.4,1-0.6,1.6-0.8c0.6-0.2,1.2-0.3,1.9-0.3c0.9,0,1.6,0.2,2.2,0.5c0.6,0.3,1.1,0.8,1.6,1.4
			L74,87c-0.1,0.1-0.2,0.1-0.3,0.2c-0.1,0.1-0.2,0.1-0.3,0.1c-0.1,0-0.3,0-0.4-0.1c-0.1-0.1-0.2-0.2-0.4-0.3
			c-0.2-0.1-0.3-0.2-0.6-0.3s-0.5-0.1-0.9-0.1c-0.5,0-0.9,0.1-1.4,0.4c-0.4,0.3-0.8,0.6-1.2,1.1c-0.3,0.5-0.6,1-0.8,1.7
			c-0.2,0.7-0.3,1.4-0.3,2.2c0,0.9,0.2,1.7,0.6,2.2c0.4,0.5,1,0.8,1.7,0.8c0.3,0,0.6,0,0.8-0.1c0.2-0.1,0.5-0.1,0.6-0.2
			c0.2-0.1,0.4-0.2,0.5-0.3c0.1-0.1,0.3-0.2,0.4-0.3c0.1-0.1,0.2-0.2,0.4-0.2c0.1-0.1,0.2-0.1,0.4-0.1c0.1,0,0.2,0,0.3,0.1
			c0.1,0.1,0.2,0.1,0.3,0.2l0.8,1C73.9,95.3,73.5,95.7,73.1,96z"/>
		<path d="M76.9,94.5c0-0.1,0-0.1,0-0.2c0-0.1,0-0.2,0-0.3c0-0.2,0-0.4,0.1-0.6c0-0.3,0.1-0.6,0.1-1l0.7-5.8h-1.2
			c-0.2,0-0.3-0.1-0.4-0.2c-0.1-0.1-0.1-0.3-0.1-0.5l0.1-1.2l2-0.3l1-3.5c0.1-0.2,0.1-0.3,0.3-0.4c0.1-0.1,0.3-0.1,0.4-0.1h1.7
			l-0.5,4h3.1L84,86.6h-3.1l-0.7,5.6c0,0.3-0.1,0.6-0.1,0.8c0,0.2,0,0.4-0.1,0.5c0,0.1,0,0.2,0,0.2s0,0.1,0,0.1
			c0,0.3,0.1,0.6,0.2,0.8s0.4,0.3,0.7,0.3c0.2,0,0.3,0,0.5-0.1c0.1,0,0.2-0.1,0.3-0.1c0.1,0,0.2-0.1,0.3-0.1s0.1-0.1,0.2-0.1
			c0.1,0,0.2,0,0.2,0.1c0,0,0.1,0.1,0.1,0.2l0.7,1.5c-0.5,0.4-1,0.7-1.5,0.9c-0.6,0.2-1.1,0.3-1.7,0.3c-0.9,0-1.6-0.2-2.2-0.7
			C77.2,96.1,76.9,95.4,76.9,94.5z"/>
		<path d="M87.8,91.9c0,2,0.9,3,2.6,3c0.4,0,0.7,0,1-0.1c0.3-0.1,0.5-0.2,0.7-0.3c0.2-0.1,0.4-0.2,0.6-0.3c0.2-0.1,0.3-0.2,0.5-0.3
			c0.1-0.1,0.3-0.2,0.4-0.3c0.1-0.1,0.3-0.1,0.5-0.1c0.1,0,0.2,0,0.3,0.1c0.1,0.1,0.2,0.1,0.3,0.2l0.8,1c-0.4,0.4-0.9,0.8-1.3,1.2
			s-0.9,0.6-1.3,0.8c-0.4,0.2-0.9,0.4-1.4,0.5c-0.5,0.1-1,0.2-1.6,0.2c-0.8,0-1.4-0.1-2-0.4c-0.6-0.3-1.1-0.6-1.6-1.1
			c-0.4-0.5-0.8-1-1-1.7c-0.2-0.7-0.4-1.4-0.4-2.2c0-0.7,0.1-1.3,0.2-2c0.1-0.7,0.4-1.3,0.6-1.9c0.3-0.6,0.6-1.1,1-1.6
			c0.4-0.5,0.9-0.9,1.4-1.3c0.5-0.4,1.1-0.6,1.7-0.8s1.3-0.3,1.9-0.3c0.7,0,1.3,0.1,1.8,0.3s0.9,0.4,1.3,0.7s0.6,0.6,0.8,1
			c0.2,0.4,0.3,0.7,0.3,1.1c0,0.6-0.1,1.1-0.3,1.6s-0.6,0.9-1.2,1.3c-0.6,0.4-1.4,0.7-2.4,1c-1,0.3-2.3,0.5-3.9,0.6V91.9z
			 M91.4,86.2c-0.4,0-0.8,0.1-1.2,0.3c-0.4,0.2-0.7,0.4-1,0.7s-0.5,0.7-0.8,1.1s-0.4,0.9-0.5,1.4c1-0.1,1.9-0.3,2.5-0.5
			c0.6-0.2,1.1-0.4,1.5-0.6c0.3-0.2,0.6-0.4,0.7-0.6s0.2-0.5,0.2-0.7c0-0.1,0-0.3-0.1-0.4c-0.1-0.1-0.1-0.3-0.2-0.4
			c-0.1-0.1-0.3-0.2-0.4-0.3C91.9,86.3,91.7,86.2,91.4,86.2z"/>
		<path d="M101,87.3c0.3-0.6,0.7-1.2,1-1.6c0.4-0.5,0.8-0.8,1.2-1.1c0.4-0.3,0.8-0.4,1.2-0.5c0.4,0,0.9,0,1.3,0.2l-0.6,3
			c-1-0.4-1.9-0.3-2.7,0.3c-0.8,0.6-1.4,1.9-1.8,3.7l-0.7,5.7h-3l1.6-12.9h1.6c0.3,0,0.6,0.1,0.8,0.2c0.2,0.2,0.3,0.4,0.3,0.8
			L101,87.3z"/>
		<path d="M110.8,97.1l1.6-12.9h1.6c0.3,0,0.6,0.1,0.8,0.2c0.2,0.2,0.3,0.4,0.3,0.8l-0.1,1.4c0.6-0.9,1.2-1.5,1.9-2s1.4-0.6,2.1-0.6
			c0.8,0,1.4,0.3,1.9,0.8s0.7,1.3,0.8,2.3c0.6-1.1,1.3-1.8,2-2.3c0.7-0.5,1.5-0.7,2.4-0.7c0.5,0,1,0.1,1.4,0.3
			c0.4,0.2,0.7,0.5,1,0.9s0.4,0.9,0.5,1.5c0.1,0.6,0.1,1.3,0,2.1l-1,8.2h-3.1l1-8.2c0.1-0.8,0.1-1.4-0.1-1.8
			c-0.2-0.4-0.5-0.5-0.9-0.5c-0.3,0-0.6,0.1-0.9,0.2s-0.6,0.4-0.9,0.7c-0.3,0.3-0.5,0.7-0.8,1.2s-0.4,1-0.6,1.6l-0.8,6.8h-3.1l1-8.2
			c0.1-0.8,0.1-1.4-0.1-1.8c-0.1-0.4-0.5-0.5-0.9-0.5c-0.3,0-0.7,0.1-1,0.3c-0.3,0.2-0.6,0.4-0.9,0.8c-0.3,0.3-0.5,0.7-0.8,1.2
			c-0.2,0.5-0.4,1-0.6,1.6l-0.8,6.7H110.8z"/>
		<path d="M138.3,94.4c-0.6,0.9-1.2,1.6-1.9,2.1c-0.7,0.5-1.5,0.8-2.3,0.8c-0.5,0-0.9-0.1-1.4-0.3c-0.4-0.2-0.8-0.5-1.1-0.9
			c-0.3-0.4-0.6-0.9-0.7-1.4c-0.2-0.6-0.3-1.2-0.3-2s0.1-1.5,0.3-2.2c0.2-0.7,0.5-1.4,0.8-2c0.4-0.6,0.8-1.2,1.3-1.8
			c0.5-0.5,1.1-1,1.7-1.4s1.3-0.7,2-0.9c0.7-0.2,1.5-0.3,2.3-0.3c0.6,0,1.2,0,1.7,0.1c0.6,0.1,1.1,0.2,1.7,0.5l-1.5,12.5h-1.6
			c-0.4,0-0.7-0.1-0.8-0.3s-0.2-0.4-0.2-0.7L138.3,94.4z M139.1,86.3c-0.1,0-0.2,0-0.3,0c-0.1,0-0.2,0-0.3,0c-0.7,0-1.3,0.2-1.9,0.5
			c-0.6,0.3-1.1,0.7-1.5,1.3c-0.4,0.5-0.8,1.2-1,1.9c-0.2,0.7-0.4,1.5-0.4,2.3c0,0.9,0.1,1.6,0.4,2s0.7,0.6,1.2,0.6
			c0.3,0,0.7-0.1,1-0.4c0.3-0.2,0.6-0.6,0.9-1c0.3-0.4,0.6-0.9,0.8-1.5c0.2-0.6,0.5-1.2,0.6-1.8L139.1,86.3z"/>
		<path d="M149,78.5l-1.3,10.7h0.3c0.2,0,0.3,0,0.5-0.1s0.2-0.2,0.4-0.3l3.4-3.9c0.1-0.2,0.3-0.3,0.5-0.4c0.2-0.1,0.4-0.1,0.6-0.1
			h2.8l-4.2,4.8c-0.3,0.4-0.6,0.7-1,0.9c0.2,0.1,0.3,0.3,0.4,0.4s0.2,0.3,0.3,0.6l3.2,6.2h-2.7c-0.2,0-0.4,0-0.6-0.1
			c-0.1-0.1-0.3-0.2-0.4-0.4l-2.5-4.9c-0.1-0.2-0.2-0.3-0.3-0.4c-0.1-0.1-0.3-0.1-0.5-0.1h-0.4l-0.7,5.9h-3.1l2.3-18.6H149z"/>
		<path d="M158.6,91.9c0,2,0.9,3,2.6,3c0.4,0,0.7,0,1-0.1c0.3-0.1,0.5-0.2,0.7-0.3c0.2-0.1,0.4-0.2,0.6-0.3c0.2-0.1,0.3-0.2,0.5-0.3
			c0.1-0.1,0.3-0.2,0.4-0.3c0.1-0.1,0.3-0.1,0.5-0.1c0.1,0,0.2,0,0.3,0.1c0.1,0.1,0.2,0.1,0.3,0.2l0.8,1c-0.4,0.4-0.9,0.8-1.3,1.2
			s-0.9,0.6-1.3,0.8c-0.4,0.2-0.9,0.4-1.4,0.5c-0.5,0.1-1,0.2-1.6,0.2c-0.8,0-1.4-0.1-2-0.4c-0.6-0.3-1.1-0.6-1.6-1.1
			c-0.4-0.5-0.8-1-1-1.7c-0.2-0.7-0.4-1.4-0.4-2.2c0-0.7,0.1-1.3,0.2-2c0.1-0.7,0.4-1.3,0.6-1.9c0.3-0.6,0.6-1.1,1-1.6
			c0.4-0.5,0.9-0.9,1.4-1.3c0.5-0.4,1.1-0.6,1.7-0.8s1.3-0.3,1.9-0.3c0.7,0,1.3,0.1,1.8,0.3s0.9,0.4,1.3,0.7s0.6,0.6,0.8,1
			c0.2,0.4,0.3,0.7,0.3,1.1c0,0.6-0.1,1.1-0.3,1.6s-0.6,0.9-1.2,1.3c-0.6,0.4-1.4,0.7-2.4,1c-1,0.3-2.3,0.5-3.9,0.6V91.9z
			 M162.3,86.2c-0.4,0-0.8,0.1-1.2,0.3c-0.4,0.2-0.7,0.4-1,0.7s-0.5,0.7-0.8,1.1s-0.4,0.9-0.5,1.4c1-0.1,1.9-0.3,2.5-0.5
			c0.6-0.2,1.1-0.4,1.5-0.6c0.3-0.2,0.6-0.4,0.7-0.6s0.2-0.5,0.2-0.7c0-0.1,0-0.3-0.1-0.4c-0.1-0.1-0.1-0.3-0.2-0.4
			c-0.1-0.1-0.3-0.2-0.4-0.3C162.7,86.3,162.5,86.2,162.3,86.2z"/>
		<path d="M171.8,87.3c0.3-0.6,0.7-1.2,1-1.6c0.4-0.5,0.8-0.8,1.2-1.1c0.4-0.3,0.8-0.4,1.2-0.5c0.4,0,0.9,0,1.3,0.2l-0.6,3
			c-1-0.4-1.9-0.3-2.7,0.3c-0.8,0.6-1.4,1.9-1.8,3.7l-0.7,5.7h-3l1.6-12.9h1.6c0.3,0,0.6,0.1,0.8,0.2c0.2,0.2,0.3,0.4,0.3,0.8
			L171.8,87.3z"/>
	</g>
</g>
</svg>
