<?xml version="1.0" encoding="utf-8"?>
<!-- Generator: Adobe Illustrator 26.0.2, SVG Export Plug-In . SVG Version: 6.00 Build 0)  -->
<svg version="1.1" id="Laag_1" xmlns="http://www.w3.org/2000/svg" xmlns:xlink="http://www.w3.org/1999/xlink" x="0px" y="0px"
	 viewBox="0 0 98.9 75.8" style="enable-background:new 0 0 98.9 75.8;" xml:space="preserve">
<style type="text/css">
	.st0{fill:#F3F3F3;}
	.st1{fill:#F3F3F3;stroke:#ED1C24;stroke-width:2;stroke-miterlimit:10;}
	.st2{fill:#FFFFFF;}
	.st3{fill:#A67C52;}
	.st4{fill:#8C6239;}
	.st5{fill:#603813;}
	.st6{fill:#754C24;}
	.st7{fill:#C69C6D;}
	.st8{fill:#603813;stroke:#000000;stroke-width:4;stroke-linejoin:round;stroke-miterlimit:10;}
	.st9{fill:#754C24;stroke:#000000;stroke-width:4;stroke-linejoin:round;stroke-miterlimit:10;}
	.st10{fill:#333333;stroke:#000000;stroke-width:3;stroke-miterlimit:10;}
	.st11{fill:none;stroke:#000000;stroke-width:24;stroke-miterlimit:10;}
	.st12{fill:#808080;}
	.st13{fill:#0071BC;}
	.st14{fill:#B3B3B3;}
	.st15{clip-path:url(#XMLID_00000105427348995270373190000003971474305010165924_);}
	.st16{fill:#29ABE2;}
	.st17{clip-path:url(#XMLID_00000180331827372182148980000003883376587635361182_);}
	.st18{fill:none;stroke:#F5F5F5;stroke-miterlimit:10;}
	.st19{fill:none;stroke:#CCCCCC;stroke-miterlimit:10;}
	.st20{fill:#333333;}
	.st21{fill:none;}
	.st22{fill:#42210B;}
	.st23{fill:#42210B;stroke:#000000;stroke-width:4;stroke-linejoin:round;stroke-miterlimit:10;}
	.st24{fill:#C69C6D;stroke:#000000;stroke-width:4;stroke-linejoin:round;stroke-miterlimit:10;}
	.st25{fill:#A67C52;stroke:#000000;stroke-width:4;stroke-linejoin:round;stroke-miterlimit:10;}
	.st26{fill:#8C6239;stroke:#000000;stroke-width:4;stroke-linejoin:round;stroke-miterlimit:10;}
	.st27{fill:none;stroke:#606060;stroke-width:0.9093;stroke-miterlimit:10;}
	.st28{fill:none;stroke:#606060;stroke-width:0.9479;stroke-miterlimit:10;}
	.st29{fill:none;stroke:#606060;stroke-width:2;stroke-miterlimit:10;}
	.st30{fill:#FFFFFF;stroke:#606060;stroke-width:2;stroke-miterlimit:10;}
	.st31{fill:none;stroke:#000000;stroke-width:3;stroke-miterlimit:10;}
	.st32{fill:none;stroke:#ED1C24;stroke-width:4.6822;stroke-miterlimit:10;}
	.st33{fill-rule:evenodd;clip-rule:evenodd;fill:#F3F3F3;}
	.st34{fill:#F3F3F3;stroke:#ED1C24;stroke-width:4.6822;stroke-miterlimit:10;}
	.st35{fill-rule:evenodd;clip-rule:evenodd;}
	.st36{fill:#393537;}
	.st37{fill:#D27019;}
</style>
<g>
	<path class="st0" d="M95.8,16.5H3c-1.7,0-3-1.4-3-3V3c0-1.7,1.4-3,3-3h92.8c1.7,0,3,1.4,3,3v10.4C98.9,15.1,97.5,16.5,95.8,16.5z"
		/>
	<path class="st0" d="M95.8,46.1H3c-1.7,0-3-1.4-3-3V32.7c0-1.7,1.4-3,3-3h92.8c1.7,0,3,1.4,3,3v10.4C98.9,44.8,97.5,46.1,95.8,46.1
		z"/>
	<path class="st0" d="M95.8,75.8H3c-1.7,0-3-1.4-3-3V62.3c0-1.7,1.4-3,3-3h92.8c1.7,0,3,1.4,3,3v10.4C98.9,74.4,97.5,75.8,95.8,75.8
		z"/>
</g>
</svg>
