<?xml version="1.0" encoding="utf-8"?>
<!-- Generator: Adobe Illustrator 25.4.1, SVG Export Plug-In . SVG Version: 6.00 Build 0)  -->
<svg version="1.1" id="Laag_1" xmlns="http://www.w3.org/2000/svg" xmlns:xlink="http://www.w3.org/1999/xlink" x="0px" y="0px"
	 viewBox="0 0 400 400" style="enable-background:new 0 0 400 400;" xml:space="preserve">
<style type="text/css">
	.st0{fill:#4B4A4B;}
</style>
<g>
	<path class="st0" d="M496.62,693.9l0.82,0.12l68.27-0.82c0.47,0,0.82,0,1.06-0.12h2.59c9.53,0,15.3-0.12,25.78-4.71
		c2.82-1.29,5.3-2.35,7.42-3.53c4.83-2.35,7.89-3.88,11.18-4c1.77-0.12,7.06,2.24,15.54,6.94c2.35,1.29,4.35,2.35,5.65,2.94
		c8.59,3.77,37.9,1.41,61.56-2.35c30.01-4.83,55.67-21.66,64.03-27.19l0.71-0.47c3.53-2.35,5.88-2.71,6.47-2.71
		c0.24,0,0.47,0,0.71,0c1.65,1.77,4,2.82,6.47,2.82l16.36-0.24c9.18-0.12,16.6-7.65,16.6-16.95l-0.35-32.72
		c0-4.47-1.88-8.71-5.06-11.77c-3.18-3.18-7.41-4.83-11.89-4.83l-16.36,0.24c-2.35,0-4.59,0.94-6.24,2.59
		c-0.35,0.35-0.71,0.82-1.06,1.29c-0.71,0-3.06-0.35-6.59-2.47l-0.71-0.35c-8.47-5.41-34.37-21.66-64.73-25.89
		c-23.66-3.3-52.96-4.94-61.56-0.94c-1.29,0.59-3.3,1.77-5.53,3.06c-10.48,6.12-14.12,7.3-15.42,7.3c-3.3-0.12-6.36-1.53-11.18-3.77
		c-2.24-1.06-4.83-2.24-7.65-3.41c-10.48-4.35-16.01-4.24-25.89-4.12l-2.35,0.12l-0.94-0.12l-68.27,0.71c-0.47,0-0.82,0-1.06,0.12
		l-16.48,0.24c-12.01,0.82-32.48,7.18-32.48,25.31c0.12,8.24,1.18,14.12,3.18,18.24c-3.77,6.71-5.77,13.06-5.77,18.95
		c0,5.77,2.24,11.77,6.59,18.01c-1.41,4-3.06,10.36-3.06,19.18v0.82c0.24,18.13,21.07,24.01,33.54,24.6L496.62,693.9z
		 M506.27,676.24l-1.06-89.92l50.49-0.59l1.06,89.92L506.27,676.24z M790.04,611.98l0.35,31.07l-6.71,0.12l-0.35-31.07
		L790.04,611.98z M587.01,588.44L587.01,588.44c2.71,1.06,4.94,2.12,7.18,3.18c6,2.71,11.18,5.06,17.89,5.3
		c7.06,0.12,15.54-4.35,24.95-9.77c1.65-0.94,3.06-1.77,3.88-2.12c2-0.71,20.24-2,51.91,2.35c26.48,3.65,50.02,18.48,57.67,23.3
		l0.71,0.47c5.3,3.3,9.65,4.47,12.48,4.83l0.24,24.95c-4.12,0.71-8.24,2.47-12.36,5.18l-0.71,0.47c-7.65,5.06-30.72,20.36-57.2,24.6
		c-29.78,4.83-49.43,4.35-51.55,3.65c-1.06-0.47-2.59-1.29-4.35-2.35c-9.42-5.18-17.77-9.42-24.95-9.06
		c-6.83,0.35-12.24,2.94-18.01,5.77c-2,0.94-4.24,2.12-6.83,3.18c-5.53,2.47-8.24,2.94-13.65,3.18l-1.06-89.92
		C578.77,585.61,581.48,586.08,587.01,588.44z M467.07,642.58c-3.77-4.35-5.88-8.36-5.88-11.18c0-3.3,1.77-7.65,4.94-12.59
		c0.94-1.41,1.41-3.06,1.41-4.83l0,0l-0.24-4.12c-0.12-2.12-0.94-4.24-2.47-5.77c-0.35-1.06-1.06-3.88-1.06-10
		c0-3.77,8.12-6.71,15.65-7.53l8.12-0.12l1.06,89.92l-7.77,0.12c-4.59-0.24-16.12-2.71-16.24-7.06v-0.71
		c0-9.65,2.47-14.48,2.82-15.18c1.18-1.77,1.77-4,1.53-6.12C468.96,645.64,468.25,643.99,467.07,642.58z"/>
</g>
<g>
	<path class="st0" d="M807.94,130.07c-1.5,0-3-0.4-4.3-1.3l-93.2-62.1c-3.4-2.3-4.5-6.8-2.4-10.3c19.1-33.3,91.7-34.9,99.9-35
		c2.1,0.1,4.1,0.8,5.5,2.3c1.5,1.5,2.3,3.4,2.3,5.5v93.2c0,2.9-1.6,5.5-4.1,6.9C810.44,129.77,809.24,130.07,807.94,130.07z
		 M726.04,58.37l74.2,49.4v-70.7C779.04,38.27,741.64,43.47,726.04,58.37z"/>
</g>
<g>
	<path class="st0" d="M730.24,332.07c-3.3,0-6.3-2.1-7.4-5.4c-46.7-146.8,29.3-236.7,32.6-240.5c2.8-3.2,7.7-3.6,10.9-0.8
		s3.6,7.7,0.8,11c-0.2,0.2-18.7,22-31.5,60.5c-11.8,35.5-21,92.9,2,165.1c1.3,4.1-1,8.5-5,9.8
		C731.84,331.87,731.04,332.07,730.24,332.07z"/>
</g>
<g>
	<path class="st0" d="M730.24,417.47L730.24,417.47c-3.4,0-6.3-2.1-7.4-5.3c-0.8-2.3-19.2-57.8,1.5-86.6c8-11.2,20.5-16.9,36.9-16.9
		c17.6,0,41,7.7,73.4,24.1c3.4,1.7,5,5.6,3.9,9.2s-4.6,5.9-8.4,5.4c-2.7-0.3-67.8-7.1-92.7,64.8
		C736.54,415.37,733.54,417.47,730.24,417.47z M761.34,324.27c-11.3,0-19.3,3.4-24.3,10.4c-8.8,12.3-7.8,33.9-4.7,51.2
		c18.8-33.8,47.1-46.7,68.9-51.5C784.54,327.57,771.44,324.27,761.34,324.27z"/>
</g>
<g>
	<path class="st0" d="M792.44,184.47c-2.7,0-5.3-1.4-6.7-3.8c-42-71.4-98.8-66.4-101.2-66.1c-4.2,0.5-8.1-2.6-8.5-6.9
		c-0.5-4.3,2.6-8.1,6.8-8.5c2.8-0.3,69-6.7,116.3,73.7c2.2,3.7,0.9,8.5-2.8,10.6C795.14,184.07,793.74,184.47,792.44,184.47z"/>
</g>
<g>
	<path class="st0" d="M769.14,215.47c-2.3,0-4.5-1-6.1-2.9c-31.8-39.4-76.8-36.1-78.7-36c-4.2,0.4-8-2.8-8.4-7.1s2.8-8,7-8.4
		c2.2-0.2,55.1-4.4,92.2,41.7c2.7,3.3,2.2,8.2-1.2,10.9C772.54,214.97,770.84,215.47,769.14,215.47z"/>
</g>
<g>
	<path class="st0" d="M753.54,254.37c-1.5,0-3-0.4-4.4-1.4c-37.1-25.3-59.9-8.7-60.8-8c-3.4,2.6-8.3,1.9-10.9-1.4
		c-2.6-3.4-2-8.2,1.3-10.8c1.3-1,32.2-24.5,79.1,7.5c3.5,2.4,4.5,7.2,2,10.8C758.54,253.17,756.04,254.37,753.54,254.37z"/>
</g>
<g>
	<path class="st0" d="M788.54,60.17c0-6.4-5.2-11.7-11.7-11.7c-6.4,0-11.6,5.2-11.6,11.7s5.2,11.7,11.6,11.7
		C783.34,71.77,788.54,66.57,788.54,60.17z"/>
</g>
<g>
	<path class="st0" d="M909.14,114.57c-0.1,0-0.2,0-0.4,0c-3.2-0.1-6-2.2-7-5.3c-33.2-98.7,42.7-126.1,43.4-126.3
		c3.1-1.1,6.6-0.1,8.6,2.5s2.2,6.2,0.5,9c-25.4,40.2-7.3,85.7-7.1,86.1c0.9,2.3,0.7,4.9-0.6,7s-3.5,3.5-5.9,3.7
		c-16.6,1.5-24.4,18.5-24.4,18.7C915.04,112.77,912.24,114.57,909.14,114.57z M929.84,10.77c-13.6,12.9-27.3,36.8-17.7,78.4
		c4.4-4.5,10.2-8.9,17.7-11.5C926.24,64.57,921.44,38.57,929.84,10.77z"/>
</g>
<g>
	<path class="st0" d="M1025.44,130.07c-1.6,0-3.2-0.5-4.6-1.5c-2.8-2.1-3.9-5.8-2.6-9c0.2-0.6,23.2-61.3,17.6-120.8
		c-0.3-3,1.2-5.9,3.8-7.4s5.8-1.4,8.3,0.3c1.3,0.9,30.7,21.3,31.9,55.9c0.9,27.1-15.7,54.3-49.5,80.9
		C1028.84,129.47,1027.14,130.07,1025.44,130.07z M1052.24,17.27c0.1,30.9-5.6,60-10.9,80.2c15.7-16.8,23.5-33.4,23-49.3
		C1063.84,35.37,1058.14,24.77,1052.24,17.27z"/>
</g>
<g>
	<path class="st0" d="M901.14,60.17c-0.5,0-1,0-1.5-0.1c-34.1-6.7-44-62.2-45-68.5c-0.7-4.2,2.2-8.2,6.4-8.9
		c4.3-0.7,8.2,2.2,8.9,6.4c2.3,14.2,12.7,51.8,32.7,55.8c4.2,0.8,7,4.9,6.1,9.1C908.04,57.57,904.84,60.17,901.14,60.17z"/>
</g>
<g>
	<path class="st0" d="M846.84,114.57c-0.7,0-1.4-0.1-2.1-0.3c-2.1-0.6-3.9-2.1-4.9-4c-0.6-1.3-15.2-30.9-5-57.6
		c5.3-13.9,16.2-24.3,32.3-30.8c2.3-0.9,5-0.7,7.1,0.7c2.1,1.4,3.4,3.7,3.5,6.2c0.3,6.8,1.9,66.5-26.8,84.6
		C849.74,114.07,848.24,114.57,846.84,114.57z M862.24,41.97c-6.1,4.3-10.4,9.7-12.8,16.2c-4.6,12.1-2.2,25.7,0.5,34.8
		C858.54,80.27,861.54,57.87,862.24,41.97z"/>
</g>
<g>
	<path class="st0" d="M1009.94,52.37c-2,0-4-0.8-5.5-2.3l-17.8-17.8l-10,10c-3,3-8,3-11,0l-31.1-31.1c-3-3-3-8,0-11s8-3,11,0
		l25.6,25.6l10-10c3-3,8-3,11,0l19.3,19.3l26.1-13c3.8-1.9,8.5-0.4,10.4,3.5c1.9,3.8,0.4,8.5-3.5,10.4l-31.1,15.5
		C1012.34,52.07,1011.14,52.37,1009.94,52.37z"/>
</g>
<g>
	<path class="st0" d="M1033.24,98.97c-1,0-1.9-0.2-2.9-0.6l-35-14l-19.9,13.3c-1.8,1.2-4.1,1.6-6.2,1.1l-31.1-7.8
		c-4.2-1-6.7-5.3-5.7-9.4c1-4.2,5.3-6.7,9.4-5.7l27.7,6.9l20.4-13.6c2.1-1.4,4.8-1.7,7.2-0.8l38.8,15.5c4,1.6,5.9,6.1,4.3,10.1
		C1039.24,97.17,1036.34,98.97,1033.24,98.97z"/>
</g>
<g>
	<path class="st0" d="M854.54,300.97c-34.6,0-66.4-32-67.7-33.4c-2.2-2.2-2.8-5.6-1.6-8.4c1.2-2.9,4-4.8,7.2-4.8
		c65,0,76.8-27.8,88.2-54.6c9.7-22.8,19.7-46.4,59.4-46.4c2.5,0,4.8,1.2,6.2,3.2c1.5,2,1.9,4.5,1.2,6.9l-14.3,46.5
		C912.84,274.57,890.14,300.97,854.54,300.97z M812.64,268.97c10.9,7.8,26.4,16.5,41.9,16.5c20.1,0,41.7-9.7,63.7-80.1l11-35.6
		c-20.5,3.5-26.4,17.6-34.3,36.1C883.94,231.57,870.64,263.07,812.64,268.97z"/>
</g>
<g>
	<path class="st0" d="M1008.74,417.47c-34.9,0-61.8-11-80-32.8c-25.8-30.9-32.4-82.4-19.6-153.1c0.8-4.2,4.8-7,9-6.3
		c4.2,0.8,7,4.8,6.3,9c-12,66-6.5,113.2,16.2,140.4c15.1,18.1,38,27.3,68.1,27.3c32.7,0,63.3-15.6,77.9-27.6
		c-36.8,5.9-65,1.1-85.9-14.4c-37.4-27.9-40.6-84-43.2-129.1c-2.2-38.5-4.5-61.8-17.5-61.8c-4.3,0-7.8-3.5-7.8-7.8s3.5-7.8,7.8-7.8
		c28.6,0,30.7,35.4,33,76.5c2.4,41.9,5.4,94,37,117.6c20,14.9,50.7,17.6,91.4,8.1c2.3-0.5,4.7,0,6.6,1.4c1.9,1.5,3,3.7,3,6
		c0.1,5.9-3.3,12.2-9.9,18.9C1084.04,399.17,1045.84,417.47,1008.74,417.47z"/>
</g>
<g>
	<path class="st0" d="M978.84,300.97c-4.3,0-7.8-3.5-7.8-7.8s3.5-7.8,7.8-7.8c68.9,0,86.8-15.2,91.3-24.3c2.3-4.7,2.1-9.6,1-13.9
		c-27.4,28-98.8,7.8-102.2,6.9c-4.1-1.2-6.5-5.5-5.3-9.6s5.5-6.5,9.6-5.3c22.3,6.4,82.3,17.1,91.5-10.5c0.9-2.7,3.3-4.7,6.1-5.2
		c2.9-0.5,5.7,0.7,7.5,3c0.7,0.9,15.9,21.3,5.8,41.7C1073.04,290.17,1038.64,300.97,978.84,300.97z"/>
</g>
<g>
	<path class="st0" d="M963.34,192.17c-2.3,0-4.5-1-6.1-2.9c-2.7-3.3-2.1-8.2,1.2-10.9l32.1-25.7l-12.3-12.3l-39.9,31.8
		c-3.3,2.7-8.2,2.1-10.9-1.2c-2.7-3.4-2.1-8.2,1.2-10.9l45.3-36.2c3.1-2.5,7.6-2.2,10.3,0.6l23.3,23.3c1.6,1.6,2.4,3.7,2.3,5.9
		c-0.1,2.2-1.2,4.3-2.9,5.6l-38.8,31.1C966.74,191.67,965.04,192.17,963.34,192.17z"/>
</g>
<g>
	<path class="st0" d="M111.73,243.4c-34.29,4.65-70.1-22.79-71.57-24.01c-2.48-1.88-3.53-5.17-2.71-8.11
		c0.8-3.03,3.32-5.29,6.49-5.72c64.41-8.73,72.37-37.86,80.07-65.95c6.55-23.9,13.29-48.63,52.63-53.96
		c2.48-0.34,4.92,0.54,6.57,2.34c1.75,1.78,2.49,4.2,2.12,6.68l-7.93,48C165.96,209.41,147.01,238.62,111.73,243.4z M65.91,217.31
		c11.85,6.27,28.38,12.81,43.74,10.72c19.92-2.7,40.02-15.21,52.37-87.93l6.12-36.75c-19.84,6.22-23.8,20.99-29.14,40.38
		C131.55,170.68,122.6,203.68,65.91,217.31z"/>
</g>
<g>
	<path class="st0" d="M280.18,338.14c-34.58,4.69-62.72-2.6-83.68-21.76c-29.72-27.16-43.17-77.3-39.98-149.08
		c0.23-4.27,3.82-7.58,8.07-7.45c4.27,0.23,7.58,3.82,7.45,8.07c-3.03,67.01,8.76,113.05,34.91,136.95
		c17.39,15.91,41.32,21.95,71.15,17.91c32.4-4.39,60.63-23.96,73.49-37.81c-35.67,10.79-64.26,9.82-87.06-2.73
		c-40.81-22.63-51.51-77.79-60.14-122.13c-7.35-37.86-12.76-60.64-25.64-58.89c-4.26,0.58-8.2-2.42-8.78-6.68s2.42-8.2,6.68-8.78
		c28.34-3.84,35.18,30.96,42.97,71.38c8,41.2,17.97,92.42,52.46,111.57c21.82,12.08,52.6,10.63,91.66-4.25
		c2.21-0.8,4.66-0.63,6.73,0.5c2.08,1.23,3.47,3.26,3.78,5.54c0.89,5.83-1.63,12.53-7.27,20.06
		C352.34,309.89,316.94,333.15,280.18,338.14z"/>
</g>
<g>
	<path class="st0" d="M234.91,226.71c-4.26,0.58-8.2-2.42-8.78-6.68c-0.58-4.26,2.42-8.2,6.68-8.78
		c68.28-9.25,83.97-26.72,87.21-36.34c1.65-4.97,0.79-9.8-0.88-13.91c-23.39,31.43-96.86,21-100.35,20.56
		c-4.22-0.64-7.18-4.58-6.54-8.8c0.64-4.22,4.58-7.18,8.8-6.54c22.96,3.35,83.85,5.89,89.26-22.69c0.53-2.8,2.64-5.1,5.35-5.97
		c2.81-0.88,5.74-0.07,7.83,1.97c0.81,0.8,18.62,18.97,11.35,40.54C326.8,203.35,294.16,218.68,234.91,226.71z"/>
</g>
<g>
	<path class="st0" d="M204.94,120.97c-2.28,0.31-4.59-0.39-6.43-2.05c-3.12-2.91-3.18-7.84-0.27-10.96l28.36-29.78l-13.84-10.54
		l-35.27,36.87c-2.91,3.12-7.84,3.18-10.96,0.27c-3.13-3.01-3.18-7.84-0.27-10.96l40.03-41.96c2.74-2.89,7.24-3.2,10.29-0.79
		l26.22,19.96c1.8,1.37,2.88,3.34,3.07,5.54c0.2,2.19-0.61,4.42-2.12,5.94l-34.27,36.03C208.24,120.02,206.62,120.74,204.94,120.97z
		"/>
</g>
</svg>
