<?xml version="1.0" encoding="utf-8"?>
<!-- Generator: Adobe Illustrator 25.4.1, SVG Export Plug-In . SVG Version: 6.00 Build 0)  -->
<svg version="1.1" id="Laag_1" xmlns="http://www.w3.org/2000/svg" xmlns:xlink="http://www.w3.org/1999/xlink" x="0px" y="0px"
	 viewBox="0 0 400 400" style="enable-background:new 0 0 400 400;" xml:space="preserve">
<style type="text/css">
	.st0{fill:#4B4A4B;}
</style>
<g>
	<path class="st0" d="M71,263.67l0.82,0.12l68.27-0.82c0.47,0,0.82,0,1.06-0.12h2.59c9.53,0,15.3-0.12,25.78-4.71
		c2.82-1.29,5.3-2.35,7.41-3.53c4.83-2.35,7.89-3.88,11.18-4c1.77-0.12,7.06,2.24,15.54,6.94c2.35,1.29,4.35,2.35,5.65,2.94
		c8.59,3.77,37.9,1.41,61.56-2.35c30.01-4.83,55.67-21.66,64.03-27.19l0.71-0.47c3.53-2.35,5.88-2.71,6.47-2.71
		c0.24,0,0.47,0,0.71,0c1.65,1.77,4,2.82,6.47,2.82l16.36-0.24c9.18-0.12,16.6-7.65,16.6-16.95l-0.35-32.72
		c0-4.47-1.88-8.71-5.06-11.77c-3.18-3.18-7.42-4.83-11.89-4.83l-16.36,0.24c-2.35,0-4.59,0.94-6.24,2.59
		c-0.35,0.35-0.71,0.82-1.06,1.29c-0.71,0-3.06-0.35-6.59-2.47l-0.71-0.35c-8.47-5.41-34.37-21.66-64.73-25.89
		c-23.66-3.3-52.96-4.94-61.56-0.94c-1.29,0.59-3.3,1.77-5.53,3.06c-10.48,6.12-14.12,7.3-15.42,7.3c-3.3-0.12-6.36-1.53-11.18-3.77
		c-2.24-1.06-4.83-2.24-7.65-3.41c-10.48-4.35-16.01-4.24-25.89-4.12l-2.35,0.12l-0.94-0.12l-68.27,0.71c-0.47,0-0.82,0-1.06,0.12
		l-16.48,0.24c-12.01,0.82-32.48,7.18-32.48,25.31c0.12,8.24,1.18,14.12,3.18,18.24c-3.77,6.71-5.77,13.06-5.77,18.95
		c0,5.77,2.24,11.77,6.59,18.01c-1.41,4-3.06,10.36-3.06,19.18v0.82c0.24,18.13,21.07,24.01,33.54,24.6L71,263.67z M80.65,246.02
		l-1.06-89.92l50.49-0.59l1.06,89.92L80.65,246.02z M364.42,181.75l0.35,31.07l-6.71,0.12l-0.35-31.07L364.42,181.75z
		 M161.39,158.21L161.39,158.21c2.71,1.06,4.94,2.12,7.18,3.18c6,2.71,11.18,5.06,17.89,5.3c7.06,0.12,15.54-4.35,24.95-9.77
		c1.65-0.94,3.06-1.77,3.88-2.12c2-0.71,20.24-2,51.91,2.35c26.48,3.65,50.02,18.48,57.67,23.3l0.71,0.47
		c5.3,3.3,9.65,4.47,12.48,4.83l0.24,24.95c-4.12,0.71-8.24,2.47-12.36,5.18l-0.71,0.47c-7.65,5.06-30.72,20.36-57.2,24.6
		c-29.78,4.83-49.43,4.35-51.55,3.65c-1.06-0.47-2.59-1.29-4.35-2.35c-9.42-5.18-17.77-9.42-24.95-9.06
		c-6.83,0.35-12.24,2.94-18.01,5.77c-2,0.94-4.24,2.12-6.83,3.18c-5.53,2.47-8.24,2.94-13.65,3.18l-1.06-89.92
		C153.16,155.39,155.86,155.86,161.39,158.21z M41.46,212.36c-3.77-4.35-5.88-8.36-5.88-11.18c0-3.3,1.77-7.65,4.94-12.59
		c0.94-1.41,1.41-3.06,1.41-4.83l0,0l-0.24-4.12c-0.12-2.12-0.94-4.24-2.47-5.77c-0.35-1.06-1.06-3.88-1.06-10
		c0-3.77,8.12-6.71,15.65-7.53l8.12-0.12L63,246.14l-7.77,0.12c-4.59-0.24-16.12-2.71-16.24-7.06v-0.71
		c0-9.65,2.47-14.48,2.82-15.18c1.18-1.77,1.77-4,1.53-6.12C43.34,215.42,42.64,213.77,41.46,212.36z"/>
</g>
</svg>
