<?xml version="1.0" encoding="utf-8"?>
<!-- Generator: Adobe Illustrator 22.0.1, SVG Export Plug-In . SVG Version: 6.00 Build 0)  -->
<svg version="1.1" id="Laag_1" xmlns="http://www.w3.org/2000/svg" xmlns:xlink="http://www.w3.org/1999/xlink" x="0px" y="0px"
	 viewBox="0 0 500 500" style="enable-background:new 0 0 500 500;" xml:space="preserve">
<style type="text/css">
	.st0{fill:#4A4A4A;}
	.st1{fill:none;stroke:#4A4A4A;stroke-width:2;stroke-linecap:round;stroke-linejoin:round;stroke-miterlimit:10;}
</style>
<g>
	<path class="st0" d="M1354.3,425.9l0.1-0.7l-0.7-58c0-0.4,0-0.7-0.1-0.9l0-2.2c0-8.1-0.1-13-4-21.9c-1.1-2.4-2-4.5-3-6.3
		c-2-4.1-3.3-6.7-3.4-9.5c-0.1-1.5,1.9-6,5.9-13.2c1.1-2,2-3.7,2.5-4.8c3.2-7.3,1.2-32.2-2-52.3c-4.1-25.5-18.4-47.3-23.1-54.4
		l-0.4-0.6c-2-3-2.3-5-2.3-5.5c0-0.2,0-0.4,0-0.6c1.5-1.4,2.4-3.4,2.4-5.5l-0.2-13.9c-0.1-7.8-6.5-14.1-14.4-14.1l-27.8,0.3
		c-3.8,0-7.4,1.6-10,4.3c-2.7,2.7-4.1,6.3-4.1,10.1l0.2,13.9c0,2,0.8,3.9,2.2,5.3c0.3,0.3,0.7,0.6,1.1,0.9c0,0.6-0.3,2.6-2.1,5.6
		l-0.3,0.6c-4.6,7.2-18.4,29.2-22,55c-2.8,20.1-4.2,45-0.8,52.3c0.5,1.1,1.5,2.8,2.6,4.7c5.2,8.9,6.2,12,6.2,13.1
		c-0.1,2.8-1.3,5.4-3.2,9.5c-0.9,1.9-1.9,4.1-2.9,6.5c-3.7,8.9-3.6,13.6-3.5,22l0.1,2l-0.1,0.8l0.6,58c0,0.4,0,0.7,0.1,0.9l0.2,14
		c0.7,10.2,6.1,27.6,21.5,27.6c7-0.1,12-1,15.5-2.7c5.7,3.2,11.1,4.9,16.1,4.9c4.9,0,10-1.9,15.3-5.6c3.4,1.2,8.8,2.6,16.3,2.6h0.7
		c15.4-0.2,20.4-17.9,20.9-28.5L1354.3,425.9z M1339.3,417.7l-76.4,0.9l-0.5-42.9l76.4-0.9L1339.3,417.7z M1284.7,176.6l26.4-0.3
		l0.1,5.7l-26.4,0.3L1284.7,176.6z M1264.7,349.1L1264.7,349.1c0.9-2.3,1.8-4.2,2.7-6.1c2.3-5.1,4.3-9.5,4.5-15.2
		c0.1-6-3.7-13.2-8.3-21.2c-0.8-1.4-1.5-2.6-1.8-3.3c-0.6-1.7-1.7-17.2,2-44.1c3.1-22.5,15.7-42.5,19.8-49l0.4-0.6
		c2.8-4.5,3.8-8.2,4.1-10.6l21.2-0.2c0.6,3.5,2.1,7,4.4,10.5l0.4,0.6c4.3,6.5,17.3,26.1,20.9,48.6c4.1,25.3,3.7,42,3.1,43.8
		c-0.4,0.9-1.1,2.2-2,3.7c-4.4,8-8,15.1-7.7,21.2c0.3,5.8,2.5,10.4,4.9,15.3c0.8,1.7,1.8,3.6,2.7,5.8c2.1,4.7,2.5,7,2.7,11.6
		l-76.4,0.9C1262.3,356.1,1262.7,353.8,1264.7,349.1z M1310.7,451c-3.7,3.2-7.1,5-9.5,5c-2.8,0-6.5-1.5-10.7-4.2
		c-1.2-0.8-2.6-1.2-4.1-1.2h0l-3.5,0.2c-1.8,0.1-3.6,0.8-4.9,2.1c-0.9,0.3-3.3,0.9-8.5,0.9c-3.2,0-5.7-6.9-6.4-13.3l-0.1-6.9
		l76.4-0.9l0.1,6.6c-0.2,3.9-2.3,13.7-6,13.8h-0.6c-8.2,0-12.3-2.1-12.9-2.4c-1.5-1-3.4-1.5-5.2-1.3
		C1313.3,449.4,1311.9,450,1310.7,451z"/>
	<path class="st0" d="M1575.8,203.7c0-53.7-18.3-94.7-53-118.5c-2-1.3-3.2-2.8-4-3.9c2.3-2.6,3.7-6,3.7-9.3V69
		c0-3.3-1.1-6.5-2.9-8.8l0-14.5c0-9.2-7.5-16.8-16.8-16.8h-31.5c-9.2,0-16.8,7.5-16.8,16.8v14c-1.9,2.3-2.9,5.5-2.9,8.8v2.9
		c0,3.6,1.3,7,3.7,9.4c-0.9,1.4-2.3,2.8-3.9,3.9c-35,24.1-53.5,65.3-53.5,118.9v171.4c0,15.4,2,30.1,5.9,43.8
		c8.1,28.9,21.2,45.4,39,48.9c5.5,1,10.6,1.5,15,1.5c12.3,0,19-3.7,24.3-7.2c2.8-1.8,3.7-2,4.8-2c1.1,0,2,0.1,5,2.1
		c5,3,11.8,7.1,24,7.1c4.4,0,9.5-0.5,15.1-1.5c18.1-3.6,30.8-19.6,38.9-48.9c3.9-14.2,5.9-28.9,5.9-43.8L1575.8,203.7z
		 M1516.9,454.2c-8.3,0-12.3-2.4-16.5-4.9c-3.6-2.1-7.3-4.3-13-4.3c-5.7,0-9.3,2.2-12.8,4.3c-4.2,2.5-8.1,4.9-16.7,4.9
		c-3.3,0-7.5-0.5-12.1-1.4c-14.3-2.7-22.6-22-26.9-37.7c-3.5-13.4-5.2-26.9-5.2-40l0-29.3h147.6v29.3c0,12.7-1.8,26.1-5.2,39.9
		c-4.4,15.7-12.6,35.1-26.9,37.8C1523.4,453.8,1519.9,454.2,1516.9,454.2z M1469.4,69.7h-2.6v-0.4h40.1v0.4h-2.6
		c-2,0-3.2,1.6-3.2,3.2c0,4.5,1.2,15.9,12.8,24.5c30.3,20.9,46.3,57.5,46.3,105.8v1.2h-146.6v-1.6c0-48,16-84.4,46.2-105.3
		c11.2-7.4,12.8-18.6,12.8-24.6C1472.6,70.9,1471.4,69.7,1469.4,69.7z M1504.5,54.2h-34.8v-8.4c0-0.9,0.7-1.6,1.6-1.6h31.5
		c0.9,0,1.6,0.7,1.6,1.6V54.2z M1561.2,219.9v110.8h-147.6V219.9H1561.2z"/>
</g>
<g>
	<g>
		<path class="st0" d="M748,180.1c-1.5,0-3-0.4-4.3-1.3l-93.2-62.1c-3.4-2.3-4.5-6.8-2.4-10.3c19.1-33.3,91.7-34.9,99.9-35
			c2.1,0.1,4.1,0.8,5.5,2.3c1.5,1.5,2.3,3.4,2.3,5.5v93.2c0,2.9-1.6,5.5-4.1,6.9C750.5,179.8,749.3,180.1,748,180.1z M666.1,108.4
			l74.2,49.4V87.1C719.1,88.3,681.7,93.5,666.1,108.4z"/>
	</g>
	<g>
		<path class="st0" d="M670.3,382.1c-3.3,0-6.3-2.1-7.4-5.4c-46.7-146.8,29.3-236.7,32.6-240.5c2.8-3.2,7.7-3.6,10.9-0.8
			c3.2,2.8,3.6,7.7,0.8,11c-0.2,0.2-18.7,22-31.5,60.5c-11.8,35.5-21,92.9,2,165.1c1.3,4.1-1,8.5-5,9.8
			C671.9,381.9,671.1,382.1,670.3,382.1z"/>
	</g>
	<g>
		<path class="st0" d="M670.3,467.5C670.3,467.5,670.3,467.5,670.3,467.5c-3.4,0-6.3-2.1-7.4-5.3c-0.8-2.3-19.2-57.8,1.5-86.6
			c8-11.2,20.5-16.9,36.9-16.9c17.6,0,41,7.7,73.4,24.1c3.4,1.7,5,5.6,3.9,9.2c-1.1,3.6-4.6,5.9-8.4,5.4
			c-2.7-0.3-67.8-7.1-92.7,64.8C676.6,465.4,673.6,467.5,670.3,467.5z M701.4,374.3c-11.3,0-19.3,3.4-24.3,10.4
			c-8.8,12.3-7.8,33.9-4.7,51.2c18.8-33.8,47.1-46.7,68.9-51.5C724.6,377.6,711.5,374.3,701.4,374.3z"/>
	</g>
	<g>
		<path class="st0" d="M732.5,234.5c-2.7,0-5.3-1.4-6.7-3.8c-42-71.4-98.8-66.4-101.2-66.1c-4.2,0.5-8.1-2.6-8.5-6.9
			c-0.5-4.3,2.6-8.1,6.8-8.5c2.8-0.3,69-6.7,116.3,73.7c2.2,3.7,0.9,8.5-2.8,10.6C735.2,234.1,733.8,234.5,732.5,234.5z"/>
	</g>
	<g>
		<path class="st0" d="M709.2,265.5c-2.3,0-4.5-1-6.1-2.9c-31.8-39.4-76.8-36.1-78.7-36c-4.2,0.4-8-2.8-8.4-7.1
			c-0.4-4.3,2.8-8,7-8.4c2.2-0.2,55.1-4.4,92.2,41.7c2.7,3.3,2.2,8.2-1.2,10.9C712.6,265,710.9,265.5,709.2,265.5z"/>
	</g>
	<g>
		<path class="st0" d="M693.6,304.4c-1.5,0-3-0.4-4.4-1.4c-37.1-25.3-59.9-8.7-60.8-8c-3.4,2.6-8.3,1.9-10.9-1.4
			c-2.6-3.4-2-8.2,1.3-10.8c1.3-1,32.2-24.5,79.1,7.5c3.5,2.4,4.5,7.2,2,10.8C698.6,303.2,696.1,304.4,693.6,304.4z"/>
	</g>
	<g>
		<path class="st0" d="M728.6,110.2c0-6.4-5.2-11.7-11.7-11.7c-6.4,0-11.6,5.2-11.6,11.7s5.2,11.7,11.6,11.7
			C723.4,121.8,728.6,116.6,728.6,110.2z"/>
	</g>
	<g>
		<path class="st0" d="M849.2,164.6c-0.1,0-0.2,0-0.4,0c-3.2-0.1-6-2.2-7-5.3c-33.2-98.7,42.7-126.1,43.4-126.3
			c3.1-1.1,6.6-0.1,8.6,2.5c2,2.6,2.2,6.2,0.5,9c-25.4,40.2-7.3,85.7-7.1,86.1c0.9,2.3,0.7,4.9-0.6,7c-1.3,2.1-3.5,3.5-5.9,3.7
			c-16.6,1.5-24.4,18.5-24.4,18.7C855.1,162.8,852.3,164.6,849.2,164.6z M869.9,60.8c-13.6,12.9-27.3,36.8-17.7,78.4
			c4.4-4.5,10.2-8.9,17.7-11.5C866.3,114.6,861.5,88.6,869.9,60.8z"/>
	</g>
	<g>
		<path class="st0" d="M965.5,180.1c-1.6,0-3.2-0.5-4.6-1.5c-2.8-2.1-3.9-5.8-2.6-9c0.2-0.6,23.2-61.3,17.6-120.8
			c-0.3-3,1.2-5.9,3.8-7.4c2.6-1.5,5.8-1.4,8.3,0.3c1.3,0.9,30.7,21.3,31.9,55.9c0.9,27.1-15.7,54.3-49.5,80.9
			C968.9,179.5,967.2,180.1,965.5,180.1z M992.3,67.3c0.1,30.9-5.6,60-10.9,80.2c15.7-16.8,23.5-33.4,23-49.3
			C1003.9,85.4,998.2,74.8,992.3,67.3z"/>
	</g>
	<g>
		<path class="st0" d="M841.2,110.2c-0.5,0-1,0-1.5-0.1c-34.1-6.7-44-62.2-45-68.5c-0.7-4.2,2.2-8.2,6.4-8.9
			c4.3-0.7,8.2,2.2,8.9,6.4c2.3,14.2,12.7,51.8,32.7,55.8c4.2,0.8,7,4.9,6.1,9.1C848.1,107.6,844.9,110.2,841.2,110.2z"/>
	</g>
	<g>
		<path class="st0" d="M786.9,164.6c-0.7,0-1.4-0.1-2.1-0.3c-2.1-0.6-3.9-2.1-4.9-4c-0.6-1.3-15.2-30.9-5-57.6
			c5.3-13.9,16.2-24.3,32.3-30.8c2.3-0.9,5-0.7,7.1,0.7c2.1,1.4,3.4,3.7,3.5,6.2c0.3,6.8,1.9,66.5-26.8,84.6
			C789.8,164.1,788.3,164.6,786.9,164.6z M802.3,92c-6.1,4.3-10.4,9.7-12.8,16.2c-4.6,12.1-2.2,25.7,0.5,34.8
			C798.6,130.3,801.6,107.9,802.3,92z"/>
	</g>
	<g>
		<path class="st0" d="M950,102.4c-2,0-4-0.8-5.5-2.3l-17.8-17.8l-10,10c-3,3-8,3-11,0l-31.1-31.1c-3-3-3-8,0-11s8-3,11,0l25.6,25.6
			l10-10c3-3,8-3,11,0l19.3,19.3l26.1-13c3.8-1.9,8.5-0.4,10.4,3.5c1.9,3.8,0.4,8.5-3.5,10.4l-31.1,15.5
			C952.4,102.1,951.2,102.4,950,102.4z"/>
	</g>
	<g>
		<path class="st0" d="M973.3,149c-1,0-1.9-0.2-2.9-0.6l-35-14l-19.9,13.3c-1.8,1.2-4.1,1.6-6.2,1.1l-31.1-7.8
			c-4.2-1-6.7-5.3-5.7-9.4c1-4.2,5.3-6.7,9.4-5.7l27.7,6.9l20.4-13.6c2.1-1.4,4.8-1.7,7.2-0.8l38.8,15.5c4,1.6,5.9,6.1,4.3,10.1
			C979.3,147.2,976.4,149,973.3,149z"/>
	</g>
	<g>
		<path class="st0" d="M794.6,351c-34.6,0-66.4-32-67.7-33.4c-2.2-2.2-2.8-5.6-1.6-8.4c1.2-2.9,4-4.8,7.2-4.8
			c65,0,76.8-27.8,88.2-54.6c9.7-22.8,19.7-46.4,59.4-46.4c2.5,0,4.8,1.2,6.2,3.2c1.5,2,1.9,4.5,1.2,6.9L873.2,260
			C852.9,324.6,830.2,351,794.6,351z M752.7,319c10.9,7.8,26.4,16.5,41.9,16.5c20.1,0,41.7-9.7,63.7-80.1l11-35.6
			c-20.5,3.5-26.4,17.6-34.3,36.1C824,281.6,810.7,313.1,752.7,319z"/>
	</g>
	<g>
		<path class="st0" d="M948.8,467.5c-34.9,0-61.8-11-80-32.8c-25.8-30.9-32.4-82.4-19.6-153.1c0.8-4.2,4.8-7,9-6.3
			c4.2,0.8,7,4.8,6.3,9c-12,66-6.5,113.2,16.2,140.4c15.1,18.1,38,27.3,68.1,27.3c32.7,0,63.3-15.6,77.9-27.6
			c-36.8,5.9-65,1.1-85.9-14.4c-37.4-27.9-40.6-84-43.2-129.1c-2.2-38.5-4.5-61.8-17.5-61.8c-4.3,0-7.8-3.5-7.8-7.8s3.5-7.8,7.8-7.8
			c28.6,0,30.7,35.4,33,76.5c2.4,41.9,5.4,94,37,117.6c20,14.9,50.7,17.6,91.4,8.1c2.3-0.5,4.7,0,6.6,1.4c1.9,1.5,3,3.7,3,6
			c0.1,5.9-3.3,12.2-9.9,18.9C1024.1,449.2,985.9,467.5,948.8,467.5z"/>
	</g>
	<g>
		<path class="st0" d="M918.9,351c-4.3,0-7.8-3.5-7.8-7.8c0-4.3,3.5-7.8,7.8-7.8c68.9,0,86.8-15.2,91.3-24.3c2.3-4.7,2.1-9.6,1-13.9
			c-27.4,28-98.8,7.8-102.2,6.9c-4.1-1.2-6.5-5.5-5.3-9.6c1.2-4.1,5.5-6.5,9.6-5.3c22.3,6.4,82.3,17.1,91.5-10.5
			c0.9-2.7,3.3-4.7,6.1-5.2c2.9-0.5,5.7,0.7,7.5,3c0.7,0.9,15.9,21.3,5.8,41.7C1013.1,340.2,978.7,351,918.9,351z"/>
	</g>
	<g>
		<path class="st0" d="M903.4,242.2c-2.3,0-4.5-1-6.1-2.9c-2.7-3.3-2.1-8.2,1.2-10.9l32.1-25.7l-12.3-12.3l-39.9,31.8
			c-3.3,2.7-8.2,2.1-10.9-1.2c-2.7-3.4-2.1-8.2,1.2-10.9l45.3-36.2c3.1-2.5,7.6-2.2,10.3,0.6l23.3,23.3c1.6,1.6,2.4,3.7,2.3,5.9
			c-0.1,2.2-1.2,4.3-2.9,5.6l-38.8,31.1C906.8,241.7,905.1,242.2,903.4,242.2z"/>
	</g>
</g>
<g>
	<g>
		<path class="st0" d="M164.6,467.5H40.3c-4.3,0-7.8-3.5-7.8-7.8V296.6c0-17.1,13.9-31.1,31.1-31.1h77.7c17.1,0,31.1,13.9,31.1,31.1
			v163.1C172.3,464,168.8,467.5,164.6,467.5z M48,452h108.8V296.6c0-8.6-7-15.5-15.5-15.5H63.6c-8.6,0-15.5,7-15.5,15.5V452z"/>
	</g>
	<g>
		<path class="st0" d="M71.3,327.7c-4.3,0-7.8-3.5-7.8-7.8v-15.5c0-4.3,3.5-7.8,7.8-7.8s7.8,3.5,7.8,7.8v15.5
			C79.1,324.2,75.6,327.7,71.3,327.7z"/>
	</g>
	<g>
		<path class="st0" d="M71.3,436.4c-4.3,0-7.8-3.5-7.8-7.8V351c0-4.3,3.5-7.8,7.8-7.8s7.8,3.5,7.8,7.8v77.7
			C79.1,433,75.6,436.4,71.3,436.4z"/>
	</g>
	<g>
		<path class="st0" d="M141.2,281.1c-4.3,0-7.8-3.5-7.8-7.8v-31.1H71.3v31.1c0,4.3-3.5,7.8-7.8,7.8s-7.8-3.5-7.8-7.8v-38.8
			c0-4.3,3.5-7.8,7.8-7.8h77.7c4.3,0,7.8,3.5,7.8,7.8v38.8C149,277.6,145.5,281.1,141.2,281.1z"/>
	</g>
	<g>
		<path class="st0" d="M296.6,110.2h-62.1c-4.3,0-7.8-3.5-7.8-7.8V71.3c0-4.3,3.5-7.8,7.8-7.8h62.1c4.3,0,7.8,3.5,7.8,7.8v31.1
			C304.4,106.7,300.9,110.2,296.6,110.2z M242.2,94.6h46.6V79.1h-46.6V94.6z"/>
	</g>
	<g>
		<path class="st0" d="M312.1,467.5h-93.2c-12.9,0-23.3-10.5-23.3-23.3V278c0-14.5,3-28.6,9.1-41.8l26.3-57.9
			c2.3-5.1,3.5-10.5,3.5-16.1v-52c0-4.3,3.5-7.8,7.8-7.8s7.8,3.5,7.8,7.8v52c0,7.8-1.6,15.4-4.9,22.5l-26.3,57.9
			c-5.1,11.2-7.7,23.1-7.7,35.4v166.2c0,4.3,3.5,7.8,7.8,7.8h93.2c4.3,0,7.8-3.5,7.8-7.8V278c0-12.3-2.6-24.2-7.7-35.4l-26.3-57.9
			c-3.2-7.1-4.9-14.7-4.9-22.5v-52c0-4.3,3.5-7.8,7.8-7.8c4.3,0,7.8,3.5,7.8,7.8v52c0,5.6,1.2,11,3.5,16.1l26.3,57.9
			c6,13.2,9.1,27.3,9.1,41.8v166.2C335.4,457.1,325,467.5,312.1,467.5z"/>
	</g>
	<g>
		<path class="st0" d="M288.8,79.1c-4.3,0-7.8-3.5-7.8-7.8V48H250v23.3c0,4.3-3.5,7.8-7.8,7.8s-7.8-3.5-7.8-7.8V40.3
			c0-4.3,3.5-7.8,7.8-7.8h46.6c4.3,0,7.8,3.5,7.8,7.8v31.1C296.6,75.6,293.1,79.1,288.8,79.1z"/>
	</g>
	<g>
		<path class="st0" d="M327.7,288.8H203.4c-4.3,0-7.8-3.5-7.8-7.8s3.5-7.8,7.8-7.8h124.3c4.3,0,7.8,3.5,7.8,7.8
			S332,288.8,327.7,288.8z"/>
	</g>
	<g>
		<path class="st0" d="M327.7,420.9H203.4c-4.3,0-7.8-3.5-7.8-7.8s3.5-7.8,7.8-7.8h124.3c4.3,0,7.8,3.5,7.8,7.8
			S332,420.9,327.7,420.9z"/>
	</g>
	<g>
		<path class="st0" d="M296.6,319.9h-62.1c-4.3,0-7.8-3.5-7.8-7.8c0-4.3,3.5-7.8,7.8-7.8h62.1c4.3,0,7.8,3.5,7.8,7.8
			C304.4,316.4,300.9,319.9,296.6,319.9z"/>
	</g>
	<g>
		<path class="st0" d="M296.6,389.8h-62.1c-4.3,0-7.8-3.5-7.8-7.8v-38.8c0-4.3,3.5-7.8,7.8-7.8h62.1c4.3,0,7.8,3.5,7.8,7.8v38.8
			C304.4,386.4,300.9,389.8,296.6,389.8z M242.2,374.3h46.6V351h-46.6V374.3z"/>
	</g>
	<g>
		<path class="st0" d="M413.1,319.9c-30,0-54.4-24.4-54.4-54.4v-93.2c0-4.3,3.5-7.8,7.8-7.8h93.2c4.3,0,7.8,3.5,7.8,7.8v93.2
			C467.5,295.5,443.1,319.9,413.1,319.9z M374.3,180.1v85.4c0,21.4,17.4,38.8,38.8,38.8S452,287,452,265.5v-85.4H374.3z"/>
	</g>
	<g>
		<path class="st0" d="M413.1,288.8c-12.9,0-23.3-10.5-23.3-23.3V250c0-4.3,3.5-7.8,7.8-7.8c4.3,0,7.8,3.5,7.8,7.8v15.5
			c0,4.3,3.5,7.8,7.8,7.8c4.3,0,7.8,3.5,7.8,7.8S417.4,288.8,413.1,288.8z"/>
	</g>
	<g>
		<path class="st0" d="M413.1,467.5c-4.3,0-7.8-3.5-7.8-7.8V312.1c0-4.3,3.5-7.8,7.8-7.8c4.3,0,7.8,3.5,7.8,7.8v147.6
			C420.9,464,417.4,467.5,413.1,467.5z"/>
	</g>
	<g>
		<path class="st0" d="M452,467.5h-77.7c-4.3,0-7.8-3.5-7.8-7.8s3.5-7.8,7.8-7.8H452c4.3,0,7.8,3.5,7.8,7.8S456.3,467.5,452,467.5z"
			/>
	</g>
	<g>
		<path class="st0" d="M397.6,226.7c-4.3,0-7.8-3.5-7.8-7.8v-15.5c0-4.3,3.5-7.8,7.8-7.8c4.3,0,7.8,3.5,7.8,7.8v15.5
			C405.4,223.2,401.9,226.7,397.6,226.7z"/>
	</g>
</g>
<g>
	<g>
		<path class="st0" d="M-356.1,117.9c-17.4,0-31.6-5.7-42.2-16.8c-21.5-22.6-20-59.7-19.9-61.2c0.2-4.1,3.6-7.4,7.8-7.4h108.8
			c4.1,0,7.6,3.3,7.8,7.4c0.1,1.6,1.6,38.6-19.9,61.2C-324.5,112.3-338.7,117.9-356.1,117.9z M-402.5,48
			c0.7,10.5,3.6,29.9,15.5,42.4c7.7,8,17.8,12,30.9,12s23.2-3.9,30.9-12c11.9-12.5,14.8-31.9,15.5-42.4H-402.5z"/>
	</g>
	<g>
		<path class="st0" d="M-270.6,288.8h-170.9c-4.3,0-7.8-3.5-7.8-7.8V149c0-54.1-14.8-89.8-14.9-90.2c-0.8-2-0.8-4.2,0.1-6.2
			c0.9-2,2.6-3.5,4.6-4.2l46.6-15.5c4.1-1.4,8.5,0.8,9.8,4.9c1.4,4.1-0.8,8.5-4.9,9.8l-39,13c4.7,14,13.3,45.7,13.3,88.4v124.3
			h155.4V149c0-42.7,8.6-74.4,13.3-88.4l-39-13c-4.1-1.4-6.3-5.8-4.9-9.8c1.4-4.1,5.8-6.3,9.8-4.9l46.6,15.5c2,0.7,3.7,2.2,4.6,4.2
			c0.9,2,0.9,4.2,0.1,6.2c-0.1,0.4-14.9,36.3-14.9,90.2v132.1C-262.9,285.4-266.3,288.8-270.6,288.8z"/>
	</g>
	<g>
		<path class="st0" d="M-239.6,187.9c-2,0-4-0.8-5.5-2.3l-31.1-31.1c-3-3-3-8,0-11s8-3,11,0l25.6,25.6l36.2-36.2l-57.8-72.2
			c-2.7-3.4-2.1-8.2,1.2-10.9c3.3-2.7,8.2-2.1,10.9,1.2l62.1,77.7c2.5,3.1,2.2,7.5-0.6,10.3l-46.6,46.6
			C-235.6,187.1-237.6,187.9-239.6,187.9z"/>
	</g>
	<g>
		<path class="st0" d="M-472.6,187.9c-2,0-4-0.8-5.5-2.3l-46.6-46.6c-2.8-2.8-3-7.3-0.6-10.3l62.1-77.7c2.7-3.3,7.6-3.9,10.9-1.2
			c3.4,2.7,3.9,7.6,1.2,10.9l-57.8,72.2l36.2,36.2l25.6-25.6c3-3,8-3,11,0c3,3,3,8,0,11l-31.1,31.1
			C-468.6,187.1-470.6,187.9-472.6,187.9z"/>
	</g>
	<g>
		<path class="st0" d="M-251.6,436.4H-375c-3.3,0-6.6-0.2-9.9-0.7l-50-7.1c-3.8-0.5-6.7-3.8-6.7-7.7v-13.7c0-18.2,12.9-34.2,30.7-38
			l75.1-16.1c5.3-1.1,10.3-3,15-5.6l61.8-34.3c2.1-1.2,4.6-1.3,6.8-0.4c0.5,0.2,53.8,22.7,82.4,22.7c28,0,49.9-14.1,50.1-14.3
			c3.2-2.1,7.5-1.5,10.1,1.3c0.7,0.8,17.5,20.1,17.5,59.5c0,28.5-4.6,44.1-13.7,46.4c-0.6,0.2-1.3,0.2-1.9,0.2h-92.6l-39.8,6.8
			C-243.8,436.1-247.7,436.4-251.6,436.4z M-426,414.2l43.3,6.2c2.6,0.4,5.2,0.5,7.7,0.5h123.4c3,0,6.1-0.3,9.1-0.8l40.5-6.9
			c0.4-0.1,0.9-0.1,1.3-0.1h89.6c1.3-3,3.6-11.2,3.6-31.1c0-22.4-6.2-37-10.2-44.1c-9.7,5-28.9,13-51.9,13
			c-27.6,0-72.1-17.2-85-22.5l-58.5,32.5c-6,3.4-12.5,5.8-19.3,7.2l-75.1,16.1c-10.7,2.3-18.4,11.9-18.4,22.8V414.2z M-111.9,414.7
			L-111.9,414.7L-111.9,414.7z"/>
	</g>
	<g>
		<path class="st0" d="M-107.5,467.5H-193c-4.3,0-7.8-3.5-7.8-7.8v-22.4l-17.2,14.2c-12.5,10.3-28.3,16-44.5,16h-113.1
			c-2.9,0-5.8-0.2-8.7-0.5l-51.5-6.4c-7.8-1-13.6-7.6-13.6-15.4v-16.4c0-8.6,7-15.5,15.5-15.5c4.3,0,7.8,3.5,7.8,7.8
			s-3.5,7.8-7.8,7.8v16.4l51.5,6.4c2.2,0.3,4.5,0.4,6.7,0.4h113.1c12.6,0,24.9-4.4,34.6-12.4l29.9-24.6c2.3-1.9,5.5-2.3,8.3-1
			c2.7,1.3,4.5,4,4.5,7V452h69.9v-31.1c0-4.3,3.5-7.8,7.8-7.8s7.8,3.5,7.8,7.8v38.8C-99.7,464-103.2,467.5-107.5,467.5z"/>
	</g>
	<g>
		<path class="st0" d="M-270.6,351c-2,0-4-0.8-5.5-2.3l-15.5-15.5c-3-3-3-8,0-11s8-3,11,0l15.5,15.5c3,3,3,8,0,11
			C-266.7,350.2-268.6,351-270.6,351z"/>
	</g>
	<g>
		<path class="st0" d="M-293.9,366.5c-2,0-4-0.8-5.5-2.3l-15.5-15.5c-3-3-3-8,0-11c3-3,8-3,11,0l15.5,15.5c3,3,3,8,0,11
			C-290,365.8-291.9,366.5-293.9,366.5z"/>
	</g>
	<g>
		<path class="st0" d="M-325,374.3c-2,0-4-0.8-5.5-2.3l-15.5-15.5c-3-3-3-8,0-11c3-3,8-3,11,0l15.5,15.5c3,3,3,8,0,11
			C-321,373.5-323,374.3-325,374.3z"/>
	</g>
	<g>
		<path class="st0" d="M-356.1,382.1c-2,0-4-0.8-5.5-2.3l-15.5-15.5c-3-3-3-8,0-11c3-3,8-3,11,0l15.5,15.5c3,3,3,8,0,11
			C-352.1,381.3-354.1,382.1-356.1,382.1z"/>
	</g>
	<g>
		<circle class="st0" cx="-161.9" cy="351" r="7.8"/>
	</g>
	<g>
		<circle class="st0" cx="-200.7" cy="405.4" r="7.8"/>
	</g>
	<g>
		<circle class="st0" cx="-177.4" cy="366.5" r="7.8"/>
	</g>
	<g>
		<circle class="st0" cx="-193" cy="382.1" r="7.8"/>
	</g>
</g>
<g>
	<g>
		<g>
			<path class="st0" d="M-735.1,428.7h-202c-4.3,0-7.8-3.5-7.8-7.8V234.5c0-4.3,3.5-7.8,7.8-7.8h202c4.3,0,7.8,3.5,7.8,7.8
				s-3.5,7.8-7.8,7.8h-194.2v170.9h186.4V288.8c0-4.3,3.5-7.8,7.8-7.8s7.8,3.5,7.8,7.8v132.1C-727.4,425.2-730.8,428.7-735.1,428.7z
				"/>
		</g>
		<g>
			<path class="st0" d="M-1014.8,351c-4.3,0-7.8-3.5-7.8-7.8v-69.9c0-4.3,3.5-7.8,7.8-7.8c4.3,0,7.8,3.5,7.8,7.8v69.9
				C-1007,347.5-1010.5,351-1014.8,351z"/>
		</g>
		<g>
			<path class="st0" d="M-812.8,164.6h-202c-4.3,0-7.8-3.5-7.8-7.8s3.5-7.8,7.8-7.8h202c4.3,0,7.8,3.5,7.8,7.8
				S-808.5,164.6-812.8,164.6z"/>
		</g>
		<g>
			<path class="st0" d="M-688.5,288.8h-202c-2.1,0-4-0.8-5.5-2.3l-124.3-124.3c-0.9-0.9-1.6-2-1.9-3.3l-23.3-77.7
				c-0.7-2.4-0.3-4.9,1.2-6.9c1.5-2,3.8-3.1,6.2-3.1h202c3.4,0,6.5,2.2,7.4,5.5l22.7,75.8L-683,275.6c2.2,2.2,2.9,5.6,1.7,8.5
				C-682.5,286.9-685.4,288.8-688.5,288.8z M-887.3,273.3h180l-111-111c-0.9-0.9-1.6-2-1.9-3.3l-21.6-72.1h-185.8l19.7,65.8
				L-887.3,273.3z"/>
		</g>
		<g>
			<path class="st0" d="M-937.1,428.7c-2,0-4-0.8-5.5-2.3l-77.7-77.7c-3-3-3-8,0-11c3-3,8-3,11,0l77.7,77.7c3,3,3,8,0,11
				C-933.1,427.9-935.1,428.7-937.1,428.7z"/>
		</g>
		<g>
			<path class="st0" d="M-735.1,242.2c-2.7,0-5.4-1.4-6.8-4c-2.1-3.8-0.7-8.5,3-10.6l60.9-33.8l-66.3-66.3l-64.8,36
				c-3.7,2.1-8.5,0.7-10.6-3c-2.1-3.8-0.7-8.5,3-10.6l69.9-38.8c3-1.7,6.8-1.2,9.3,1.3l77.7,77.7c1.7,1.7,2.5,4.2,2.2,6.6
				c-0.3,2.4-1.8,4.5-3.9,5.7l-69.9,38.8C-732.5,241.9-733.8,242.2-735.1,242.2z"/>
		</g>
		<g>
			<path class="st0" d="M-1007,288.8c-2,0-4-0.8-5.5-2.3l-77.7-77.7c-1.6-1.6-2.5-3.9-2.2-6.3c0.2-2.3,1.5-4.4,3.4-5.7l69.9-46.6
				c3.6-2.4,8.4-1.4,10.8,2.2c2.4,3.6,1.4,8.4-2.2,10.8l-62,41.4l66.5,66.5l64.6-43.1c3.6-2.4,8.4-1.4,10.8,2.2
				c2.4,3.6,1.4,8.4-2.2,10.8l-69.9,46.6C-1004,288.4-1005.5,288.8-1007,288.8z"/>
		</g>
	</g>
	<g>
		<circle class="st0" cx="-812.8" cy="172.3" r="7.8"/>
	</g>
	<g>
		<circle class="st0" cx="-812.8" cy="195.6" r="7.8"/>
	</g>
	<g>
		<circle class="st0" cx="-812.8" cy="218.9" r="7.8"/>
	</g>
	<g>
		<path class="st1" d="M-762.8,389.1"/>
	</g>
</g>
<g>
	<g>
		<path class="st0" d="M-1424.5,467.5c-148.8,0-207.6-54.2-210-56.5c-1.6-1.5-2.5-3.6-2.4-5.8c0-2.2,1-4.2,2.6-5.7
			c0.3-0.3,33.3-29.9,55.9-82.7c-6.6-54.2-5.3-100.8,3.9-138.6c0.8-3.2,3.5-5.6,6.8-5.9c26.1-2.5,70.9-8.5,81.8-14.2
			c5.1-4.2,28.4-22.2,49.7-22.9l-52-91.1c-1.6-2.8-1.3-6.4,0.8-8.9c2.1-2.5,5.6-3.4,8.6-2.2l59,22.1l43.6-21.8
			c2.4-1.2,5.3-1.1,7.6,0.3c2.3,1.4,3.7,3.9,3.7,6.6v25.3c9.4-4.6,23.4-9.8,38.8-9.8c11.3,0,39.8,5,61.4,51.1
			c1.2,2.5,0.9,5.4-0.6,7.6c-1.5,2.3-4.1,3.6-6.8,3.4c-18.1-0.9-68.8,0.5-86.7,17.5c-2.9,2.7-4.7,5.7-5.6,9l88.4,44.2
			c2.6,1.3,4.3,4,4.3,6.9c0,169.5,64.8,202.4,65.4,202.7c2.4,1.1,4.1,3.5,4.4,6.1c0.3,2.6-0.7,5.3-2.8,7
			C-1207.6,413.7-1276,467.5-1424.5,467.5z M-1617.4,404.7c18.4,13.1,77.5,47.2,192.9,47.2c113.4,0,178.5-32.8,201-46.6
			c-20.4-16.7-62.9-67.8-63.8-204.9l-88.9-44.5c-2.6-1.3-4.3-4-4.3-6.9c0-9.6,3.7-17.9,10.9-24.8c19.7-18.7,62.8-21.7,84.8-22
			c-11.7-19.5-26.7-30.9-41.4-30.9c-22.5,0-41.8,13.9-42,14c-2.4,1.7-5.5,2-8.1,0.7c-2.6-1.3-4.2-4-4.2-6.9V52.8l-35.4,17.7
			c-1.9,1-4.2,1.1-6.2,0.3l-42-15.7l51.5,90.1c1.9,3.4,1.1,7.7-2,10c-3.1,2.4-7.5,2.1-10.2-0.7c-12-12-42.1,8-51.7,16
			c-0.3,0.3-0.7,0.5-1.1,0.7c-14.1,8.3-65.1,14.2-83,16c-7.7,35.4-8.4,79-2.1,129.6c0,0.1,0,0.2,0,0.3c5.5,43.5,18.4,77.4,18.5,77.7
			c1.5,4-0.5,8.5-4.5,10c-4,1.5-8.5-0.5-10-4.5c-0.5-1.2-9.1-23.9-15.4-56.4C-1590.2,374.4-1608,395-1617.4,404.7z"/>
	</g>
	<g>
		<path class="st0" d="M-1489.1,265.5c-0.3,0-0.5,0-0.8,0c-9.3-0.3-15.1-6.5-15-15.6c0.5-27.9,68-108.6,85.4-108.6
			c2.5,0,4.8,1.2,6.3,3.2c1.5,2,1.9,4.6,1.1,7C-1418.4,170.6-1451.7,265.5-1489.1,265.5z M-1489.4,250c0.1,0,0.3,0,0.4,0
			c15.6,0,37.4-39.7,52.7-77.7c-7.1,7.4-15.6,17.1-24.3,28.2C-1482,227.9-1489.4,244.7-1489.4,250z M-1418.3,156.6L-1418.3,156.6z"
			/>
	</g>
	<g>
		<path class="st0" d="M-1543.7,242.2c-2.4,0-4.7-1.1-6.2-3.1c-2.6-3.4-1.9-8.3,1.5-10.9c7.5-5.7,74.1-55.9,95.4-63.3
			c4.1-1.4,8.5,0.7,9.9,4.8c1.4,4.1-0.7,8.5-4.8,9.9c-16.1,5.6-71.2,45.9-91.1,61C-1540.4,241.7-1542,242.2-1543.7,242.2z"/>
	</g>
	<g>
		<path class="st0" d="M-1328.3,265.5c-43.3,0-51.1-96.7-52.3-116.1c-0.2-3.3,1.7-6.3,4.7-7.6c3-1.3,6.5-0.6,8.7,1.8
			c17.7,18.8,74.3,82.2,62.5,109.5C-1307,258.8-1313.1,265.5-1328.3,265.5z M-1362.8,171.9c5,37.8,17,78.1,34.5,78.1
			c3,0,8.3-0.4,9.4-3C-1314.4,236.6-1336.2,203-1362.8,171.9z"/>
	</g>
	<g>
		<path class="st0" d="M-1372.8,413.1c-1.2,0-2.4-0.3-3.5-0.8c-3.8-1.9-5.4-6.6-3.5-10.4l46.6-93.2c1.9-3.8,6.6-5.4,10.4-3.5
			c3.8,1.9,5.4,6.6,3.5,10.4l-46.6,93.2C-1367.2,411.6-1369.9,413.1-1372.8,413.1z"/>
	</g>
	<g>
		<path class="st0" d="M-1512.6,374.3c-0.6,0-1.3-0.1-1.9-0.2c-4.2-1-6.7-5.3-5.7-9.4l15.5-62.1c1-4.2,5.3-6.7,9.4-5.7
			c4.2,1,6.7,5.3,5.7,9.4l-15.5,62.1C-1506,371.9-1509.1,374.3-1512.6,374.3z"/>
	</g>
	<g>
		<path class="st0" d="M-1397.5,164.5c-10.8,0-21-3.4-27.5-10.1c-3-3.1-2.9-8,0.2-11c3.1-3,8-2.9,11,0.2c6.6,6.9,24.7,7.9,36.4-0.8
			c3.4-2.6,8.3-1.9,10.9,1.6c2.6,3.4,1.9,8.3-1.6,10.9C-1376.5,161.5-1387.2,164.5-1397.5,164.5z"/>
	</g>
</g>
<g>
	<g>
		<path class="st0" d="M-2313.7,467.5H-2438c-4.3,0-7.8-3.5-7.8-7.8V195.6c0-4.3,3.5-7.8,7.8-7.8h124.3c4.3,0,7.8,3.5,7.8,7.8v264.1
			C-2305.9,464-2309.4,467.5-2313.7,467.5z M-2430.2,452h108.8V203.4h-108.8V452z"/>
	</g>
	<g>
		<path class="st0" d="M-2344.8,203.4c-4.3,0-7.8-3.5-7.8-7.8v-23.3h-46.6v23.3c0,4.3-3.5,7.8-7.8,7.8s-7.8-3.5-7.8-7.8v-31.1
			c0-4.3,3.5-7.8,7.8-7.8h62.1c4.3,0,7.8,3.5,7.8,7.8v31.1C-2337,199.9-2340.5,203.4-2344.8,203.4z"/>
	</g>
	<g>
		<path class="st0" d="M-2313.7,335.4H-2438c-4.3,0-7.8-3.5-7.8-7.8c0-4.3,3.5-7.8,7.8-7.8h124.3c4.3,0,7.8,3.5,7.8,7.8
			C-2305.9,332-2309.4,335.4-2313.7,335.4z"/>
	</g>
	<g>
		<path class="st0" d="M-2375.8,288.8c-4.3,0-7.8-3.5-7.8-7.8v-46.6c0-4.3,3.5-7.8,7.8-7.8s7.8,3.5,7.8,7.8v46.6
			C-2368.1,285.4-2371.6,288.8-2375.8,288.8z"/>
	</g>
	<g>
		<path class="st0" d="M-2352.5,265.5h-46.6c-4.3,0-7.8-3.5-7.8-7.8c0-4.3,3.5-7.8,7.8-7.8h46.6c4.3,0,7.8,3.5,7.8,7.8
			C-2344.8,262.1-2348.2,265.5-2352.5,265.5z"/>
	</g>
	<g>
		<path class="st0" d="M-2352.5,397.6h-46.6c-4.3,0-7.8-3.5-7.8-7.8c0-4.3,3.5-7.8,7.8-7.8h46.6c4.3,0,7.8,3.5,7.8,7.8
			C-2344.8,394.1-2348.2,397.6-2352.5,397.6z"/>
	</g>
	<g>
		<path class="st0" d="M-2484.6,296.6h-248.6c-4.3,0-7.8-3.5-7.8-7.8V71.3c0-4.3,3.5-7.8,7.8-7.8h248.6c4.3,0,7.8,3.5,7.8,7.8v217.5
			C-2476.8,293.1-2480.3,296.6-2484.6,296.6z M-2725.4,281.1h233v-202h-233V281.1z"/>
	</g>
	<g>
		<path class="st0" d="M-2655.5,79.1c-4.3,0-7.8-3.5-7.8-7.8V48h-31.1v23.3c0,4.3-3.5,7.8-7.8,7.8s-7.8-3.5-7.8-7.8V40.3
			c0-4.3,3.5-7.8,7.8-7.8h46.6c4.3,0,7.8,3.5,7.8,7.8v31.1C-2647.7,75.6-2651.2,79.1-2655.5,79.1z"/>
	</g>
	<g>
		<path class="st0" d="M-2515.7,79.1c-4.3,0-7.8-3.5-7.8-7.8V48h-31.1v23.3c0,4.3-3.5,7.8-7.8,7.8s-7.8-3.5-7.8-7.8V40.3
			c0-4.3,3.5-7.8,7.8-7.8h46.6c4.3,0,7.8,3.5,7.8,7.8v31.1C-2507.9,75.6-2511.4,79.1-2515.7,79.1z"/>
	</g>
	<g>
		<path class="st0" d="M-2523.4,117.9h-31.1c-4.3,0-7.8-3.5-7.8-7.8s3.5-7.8,7.8-7.8h31.1c4.3,0,7.8,3.5,7.8,7.8
			S-2519.1,117.9-2523.4,117.9z"/>
	</g>
	<g>
		<path class="st0" d="M-2663.3,117.9h-31.1c-4.3,0-7.8-3.5-7.8-7.8s3.5-7.8,7.8-7.8h31.1c4.3,0,7.8,3.5,7.8,7.8
			S-2659,117.9-2663.3,117.9z"/>
	</g>
	<g>
		<path class="st0" d="M-2678.8,133.5c-4.3,0-7.8-3.5-7.8-7.8V94.6c0-4.3,3.5-7.8,7.8-7.8s7.8,3.5,7.8,7.8v31.1
			C-2671,130-2674.5,133.5-2678.8,133.5z"/>
	</g>
	<g>
		<path class="st0" d="M-2484.6,156.8h-248.6c-4.3,0-7.8-3.5-7.8-7.8s3.5-7.8,7.8-7.8h248.6c4.3,0,7.8,3.5,7.8,7.8
			S-2480.3,156.8-2484.6,156.8z"/>
	</g>
	<g>
		<path class="st0" d="M-2608.9,265.5c-1,0-1.9-0.2-2.9-0.6c-4-1.6-5.9-6.1-4.3-10.1l11.3-28.2h-19.6c-2.6,0-5-1.3-6.4-3.4
			c-1.4-2.1-1.7-4.8-0.8-7.2l15.5-38.8c1.6-4,6.1-5.9,10.1-4.3c4,1.6,5.9,6.1,4.3,10.1l-11.3,28.2h19.6c2.6,0,5,1.3,6.4,3.4
			c1.4,2.1,1.7,4.8,0.8,7.2l-15.5,38.8C-2602.9,263.7-2605.8,265.5-2608.9,265.5z"/>
	</g>
	<g>
		<path class="st0" d="M-2678.8,420.9c-30.9,0-62.1-10.7-62.1-31.1c0-20.4,31.3-31.1,62.1-31.1s62.1,10.7,62.1,31.1
			C-2616.7,410.2-2647.9,420.9-2678.8,420.9z M-2678.8,374.3c-28.9,0-46.6,10.1-46.6,15.5s17.7,15.5,46.6,15.5s46.6-10.1,46.6-15.5
			S-2649.9,374.3-2678.8,374.3z"/>
	</g>
	<g>
		<path class="st0" d="M-2678.8,452c-30.9,0-62.1-10.7-62.1-31.1v-31.1c0-4.3,3.5-7.8,7.8-7.8s7.8,3.5,7.8,7.8v31.1
			c0,5.5,17.7,15.5,46.6,15.5s46.6-10.1,46.6-15.5v-31.1c0-4.3,3.5-7.8,7.8-7.8s7.8,3.5,7.8,7.8v31.1
			C-2616.7,441.3-2647.9,452-2678.8,452z"/>
	</g>
	<g>
		<path class="st0" d="M-2539,382.1c-30.9,0-62.1-10.7-62.1-31.1c0-20.4,31.3-31.1,62.1-31.1c30.9,0,62.1,10.7,62.1,31.1
			C-2476.8,371.4-2508.1,382.1-2539,382.1z M-2539,335.4c-28.9,0-46.6,10.1-46.6,15.5c0,5.5,17.7,15.5,46.6,15.5
			c28.9,0,46.6-10.1,46.6-15.5C-2492.4,345.5-2510.1,335.4-2539,335.4z"/>
	</g>
	<g>
		<path class="st0" d="M-2539,413.1c-30.9,0-62.1-10.7-62.1-31.1V351c0-4.3,3.5-7.8,7.8-7.8s7.8,3.5,7.8,7.8v31.1
			c0,5.5,17.7,15.5,46.6,15.5c28.9,0,46.6-10.1,46.6-15.5V351c0-4.3,3.5-7.8,7.8-7.8s7.8,3.5,7.8,7.8v31.1
			C-2476.8,402.5-2508.1,413.1-2539,413.1z"/>
	</g>
</g>
<g>
	<g>
		<path class="st0" d="M-1871.9,312.1h-108.9c-4.3,0-8.4-1.4-11.6-3.9c-3.2,2.4-7.3,3.9-11.6,3.9h-108.9c-10.7,0-19.4-8.7-19.4-19.4
			v-31.1c0-10.7,8.7-19.4,19.4-19.4h108.9c4.3,0,8.4,1.4,11.6,3.9c3.2-2.4,7.3-3.9,11.6-3.9h108.9c10.7,0,19.4,8.7,19.4,19.4v31.1
			C-1852.6,303.4-1861.3,312.1-1871.9,312.1z M-1992.4,285c4.3,0,7.8,3.5,7.8,7.8c0,2.1,1.7,3.9,3.8,3.9h108.9
			c2.1,0,3.8-1.7,3.8-3.9v-31.1c0-2.1-1.7-3.9-3.8-3.9h-108.9c-2.1,0-3.8,1.7-3.8,3.9c0,4.3-3.5,7.8-7.8,7.8c-4.3,0-7.8-3.5-7.8-7.8
			c0-2.1-1.7-3.9-3.8-3.9h-108.9c-2.1,0-3.8,1.7-3.8,3.9v31.1c0,2.1,1.7,3.9,3.8,3.9h108.9c2.1,0,3.8-1.7,3.8-3.9
			C-2000.2,288.4-1996.7,285-1992.4,285z"/>
	</g>
	<g>
		<path class="st0" d="M-1813.7,389.8h-46.6c-4.3,0-7.8-3.5-7.8-7.8V244.9c0-27.2,23.5-49.3,52.3-49.3h0c22.6,0,40.9,17.3,40.9,38.7
			v1.2c0,19.4-12.9,34.6-31.1,38v108.6C-1806,386.4-1809.4,389.8-1813.7,389.8z M-1852.6,374.3h31.1V266.4c0-4.3,3.5-7.8,7.8-7.8
			c13.5,0,23.3-9.7,23.3-23.1v-1.2c0-12.8-11.4-23.1-25.4-23.1c-20.3,0-36.8,15.1-36.8,33.7V374.3z"/>
	</g>
	<g>
		<path class="st0" d="M-2124.4,389.8h-46.6c-4.3,0-7.8-3.5-7.8-7.8V273.3c-17.3-3.8-31.1-19.9-31.1-37.8v-1.2
			c0-21.3,18.4-38.7,40.9-38.7c28.8,0,52.3,22.1,52.3,49.3v137.2C-2116.7,386.4-2120.2,389.8-2124.4,389.8z M-2163.3,374.3h31.1
			V244.9c0-18.6-16.5-33.7-36.7-33.7h0c-14,0-25.4,10.4-25.4,23.1v1.2c0,13,12.5,23.1,23.3,23.1c4.3,0,7.8,3.5,7.8,7.8V374.3z"/>
	</g>
	<g>
		<path class="st0" d="M-1860.3,389.8h-264.1c-4.3,0-7.8-3.5-7.8-7.8c0-4.3,3.5-7.8,7.8-7.8h264.1c4.3,0,7.8,3.5,7.8,7.8
			C-1852.6,386.4-1856,389.8-1860.3,389.8z"/>
	</g>
	<g>
		<path class="st0" d="M-1860.3,265.5c-4.3,0-7.8-3.5-7.8-7.8v-36.9c0-26.9,8.3-36.3,15.1-43.8c4.9-5.5,8.1-9.1,8.1-20.3
			c0-17.7-13.1-31.1-30.4-31.1h-234.1c-17.3,0-30.4,13.4-30.4,31.1c0,11.2,3.2,14.8,8.1,20.3c6.7,7.5,15.1,16.9,15.1,43.8v36.9
			c0,4.3-3.5,7.8-7.8,7.8s-7.8-3.5-7.8-7.8v-36.9c0-21-5.4-27.1-11.1-33.5c-5.6-6.3-12-13.5-12-30.7c0-26.6,19.8-46.6,45.9-46.6
			h234.1c26.2,0,45.9,20,45.9,46.6c0,17.1-6.4,24.3-12,30.7c-5.7,6.4-11.1,12.5-11.1,33.5v36.9
			C-1852.6,262.1-1856,265.5-1860.3,265.5z"/>
	</g>
	<g>
		<path class="st0" d="M-1992.4,304.4c-4.3,0-7.8-3.5-7.8-7.8v-31.1c0-4.3,3.5-7.8,7.8-7.8c4.3,0,7.8,3.5,7.8,7.8v31.1
			C-1984.6,300.9-1988.1,304.4-1992.4,304.4z"/>
	</g>
</g>
</svg>
