<?xml version="1.0" encoding="UTF-8"?>
<svg width="32px" height="32px" viewBox="0 0 32 32" version="1.1" xmlns="http://www.w3.org/2000/svg" xmlns:xlink="http://www.w3.org/1999/xlink">
    <!-- Generator: Sketch 42 (36781) - http://www.bohemiancoding.com/sketch -->
    <title>veiligheid</title>
    <desc>Created with Sketch.</desc>
    <defs></defs>
    <g id="Page-1" stroke="none" stroke-width="1" fill="none" fill-rule="evenodd">
        <g id="veiligheid" fill-rule="nonzero" fill="#18933C">
            <g id="noun_821482_cc" transform="translate(4.000000, 0.000000)">
                <path d="M0.108208955,15.4352941 C0.108208955,18.3115294 2.06716418,21.8767059 5.93656716,26.0291765 C7.69416169,27.9102801 9.57528064,29.6698665 11.5671642,31.296 L12.3768657,31.9397647 L13.1865672,31.296 C15.1663028,29.6747372 17.0361613,27.9214781 18.7835821,26.048 C22.6529851,21.8955294 24.6268657,18.3303529 24.6268657,15.4352941 L24.6268657,6.02352941 L12.3619403,0.154352941 L0.108208955,6.05364706 L0.108208955,15.4352941 Z M2.36999989,7.31888847 L12.3641983,2.5999999 L22.3699999,7.33810218 L22.3699999,15.2195683 C22.3699999,19.4081583 15.7948693,25.7525272 12.3796692,28.5999999 C8.94899815,25.771741 2.36999989,19.4273721 2.36999989,15.2195683 L2.36999989,7.31888847 Z" id="Shape"></path>
                <polygon id="Shape" points="17.9029851 12.3670588 16.0522388 10.5072941 11.0410448 15.5632941 8.66791045 13.1689412 6.82089552 15.0324706 11.0410448 19.2903529"></polygon>
            </g>
        </g>
    </g>
</svg>