<?xml version="1.0" encoding="UTF-8"?>
<svg width="32px" height="32px" viewBox="0 0 32 32" version="1.1" xmlns="http://www.w3.org/2000/svg" xmlns:xlink="http://www.w3.org/1999/xlink">
    <!-- Generator: Sketch 42 (36781) - http://www.bohemiancoding.com/sketch -->
    <title>zorg</title>
    <desc>Created with Sketch.</desc>
    <defs></defs>
    <g id="Page-1" stroke="none" stroke-width="1" fill="none" fill-rule="evenodd">
        <g id="zorg" fill-rule="nonzero" stroke="#18933C" fill="#18933C">
            <g id="noun_708608_cc" transform="translate(1.000000, 4.000000)">
                <g id="Group">
                    <g id="Group-2">
                        <path d="M29.7857143,13.4142857 C29.2959184,12.5166667 28.4693878,12.052381 27.3061224,12.0214286 C26.7244898,12.0214286 26.0816327,12.1452381 25.4387755,12.4238095 L21.5204082,14.0952381 C21.1530612,13.4142857 20.4183673,12.9190476 19.5918367,12.9190476 L19.5918367,12.9190476 L16.5,12.9190476 C15.9489796,12.9190476 14.4183673,12.4857143 12.4591837,11.8047619 C11.2959184,11.402381 10.1326531,11.2166667 9,11.3095238 C8.41836735,11.3404762 7.86734694,11.4333333 7.40816327,11.5880952 C6.58163265,11.8666667 5.29591837,12.5785714 4.25510204,13.197619 C4.19387755,12.8261905 3.8877551,12.547619 3.48979592,12.547619 L0.765306122,12.547619 C0.336734694,12.547619 0,12.8880952 0,13.3214286 L0,23.1952381 C0,23.6285714 0.336734694,23.9690476 0.765306122,23.9690476 L3.48979592,23.9690476 C3.91836735,23.9690476 4.25510204,23.6285714 4.25510204,23.1952381 L4.25510204,22.452381 L5.3877551,21.5547619 C6.24489796,20.9047619 7.31632653,20.5952381 8.3877551,20.6880952 C9.67346939,20.7809524 10.5918367,20.8738095 11.0816327,20.997619 L14.1122449,21.647619 C15.5816327,21.9571429 17.0816327,21.9261905 18.4285714,21.5547619 C18.9183673,21.4309524 19.3163265,21.2761905 19.6530612,21.0904762 L29.0816327,15.797619 C29.4795918,15.5809524 29.7857143,15.2095238 29.9081633,14.7761905 C30.0612245,14.2809524 30,13.8166667 29.7857143,13.4142857 Z M1.53061224,22.4214286 L1.53061224,14.0952381 L2.7244898,14.0952381 L2.7244898,14.4666667 L2.7244898,14.497619 L2.7244898,16.8809524 L2.7244898,22.3904762 L1.53061224,22.3904762 L1.53061224,22.4214286 Z M28.4693878,14.2809524 C28.4693878,14.3119048 28.4387755,14.3428571 28.377551,14.3738095 L18.9489796,19.697619 C18.7346939,19.8214286 18.4285714,19.9452381 18.0612245,20.0380952 C16.9285714,20.347619 15.6734694,20.3785714 14.4489796,20.1 L11.4183673,19.45 C10.8367347,19.3261905 9.85714286,19.2333333 8.51020408,19.1095238 C7.07142857,19.0166667 5.66326531,19.4190476 4.5,20.2857143 L4.28571429,20.4404762 L4.28571429,16.85 L4.28571429,14.9309524 C4.40816327,14.8690476 4.56122449,14.7761905 4.68367347,14.6833333 C5.63265306,14.1261905 7.10204082,13.2595238 7.86734694,13.0119048 C8.20408163,12.9190476 8.60204082,12.8261905 9.09183673,12.7952381 C10.0408163,12.7333333 10.9897959,12.8880952 11.9693878,13.2285714 C14.2346939,14.002381 15.7653061,14.4047619 16.5,14.4047619 L19.5918367,14.4047619 L19.5918367,14.4047619 C19.9591837,14.4047619 20.2653061,14.7142857 20.2653061,15.0547619 L20.2653061,15.0857143 C20.2653061,15.2714286 20.2040816,15.4261905 20.0816327,15.55 C19.9591837,15.6738095 19.7755102,15.7357143 19.622449,15.7357143 L13.6836735,15.7357143 C13.255102,15.7357143 12.9183673,16.0761905 12.9183673,16.5095238 C12.9183673,16.9428571 13.255102,17.2833333 13.6836735,17.2833333 L13.6836735,17.2833333 L19.622449,17.2833333 C20.2040816,17.2833333 20.755102,17.0666667 21.1836735,16.6333333 C21.4591837,16.3547619 21.6734694,15.9833333 21.7653061,15.6119048 L26.0204082,13.847619 C26.4489796,13.6619048 26.877551,13.5690476 27.244898,13.5690476 C28.0102041,13.5690476 28.255102,13.8785714 28.4081633,14.1571429 C28.4693878,14.2190476 28.4693878,14.25 28.4693878,14.2809524 Z" id="Shape" stroke-width="0.4"></path>
                        <path d="M18,13.5576 L17.7652667,13.4194667 C17.622,13.335 14.2312,11.3166667 12.2964,8.2586 C11.2683333,6.63506667 10.9486667,4.92053333 11.3957333,3.43186667 C11.7620667,2.2134 12.6114,1.24973333 13.7878667,0.720533333 C14.1985333,0.535733333 14.6222667,0.441933333 15.0474,0.441933333 C16.4086667,0.441933333 17.4652,1.38833333 18,1.99173333 C18.5352667,1.38833333 19.5913333,0.441933333 20.9530667,0.441933333 C21.3782,0.441933333 21.8019333,0.535266667 22.2121333,0.720533333 C23.3886,1.24973333 24.2384,2.21293333 24.6047333,3.43186667 C25.0518,4.92006667 24.7316667,6.63413333 23.7040667,8.25906667 C21.7692667,11.3166667 18.3784667,13.335 18.2352,13.4194667 L18,13.5576 Z M15.0469333,1.36826667 C14.7534,1.36826667 14.458,1.435 14.1672667,1.56566667 C13.2395333,1.98333333 12.5698667,2.7412 12.2819333,3.6988 C11.9132667,4.92613333 12.1960667,6.37 13.0785333,7.76393333 C14.6124667,10.1878 17.2094667,11.9686 18,12.4754 C18.7905333,11.9676667 21.3903333,10.1836 22.9219333,7.76393333 C23.8039333,6.37 24.0872,4.92613333 23.7180667,3.6988 C23.4301333,2.74073333 22.7604667,1.98286667 21.8322667,1.56566667 C21.5415333,1.435 21.2461333,1.36826667 20.9530667,1.36826667 C19.4858667,1.36826667 18.3962,2.97733333 18.3854667,2.99366667 L18,3.5714 L17.615,2.99366667 C17.6042667,2.97826667 16.5048,1.36826667 15.0469333,1.36826667 Z" id="Shape"></path>
                    </g>
                </g>
            </g>
        </g>
    </g>
</svg>