
  <svg xmlns="http://www.w3.org/2000/svg" viewBox="0 0 33 42"><g fill="none" fill-rule="evenodd"><path class="icon__path icon_path--1" fill="#F96705" d="M17.65.201C8.25-.455.4 7.084.4 16.497c0 3.39 1 6.527 2.75 9.108 1.551 2.329 5.289 7.857 8.401 12.45 3.36 4.957 6.54 4.957 9.9 0 3.134-4.625 6.85-10.121 8.401-12.45 1.998-2.935 2.998-6.578 2.7-10.476C31.948 7.185 25.55.76 17.65.201z"/><path class="icon__path icon_path--2" fill="#FFF" d="M16.41 23C12.326 23 9 19.635 9 15.5S12.325 8 16.41 8c4.086 0 7.411 3.365 7.411 7.5s-3.325 7.5-7.41 7.5z"/></g></svg>