<svg width="88" height="20" viewBox="0 0 88 20" fill="none" xmlns="http://www.w3.org/2000/svg">
    <path fill="#242337" d="M6.72 8.87h5.8l-.05 5.34c0 2.6-2.15 5.79-5.83 5.79C3.08 20 1 16.76 1 14.2.97 12.74.94 11.36.94 9.65L.96 5.9C.97 3.33 3.08 0 6.6 0c3.77 0 5.86 3.28 5.86 5.93H9.4c0-1.17-.9-2.75-2.76-2.75-1.68 0-2.57 1.68-2.57 2.69 0 .46-.06 1.98-.06 3.75 0 2.15.06 4.57.06 4.57a2.7 2.7 0 002.66 2.65c1.73 0 2.67-1.42 2.67-2.95 0-1.52.04-1.87.04-1.87H6.72V8.87zM31.13.06h-3.08V19.9h3.08V.06zM37.52.06h-3.08V19.9h3.08V.06zM25 10.66a4.95 4.95 0 00-4.89-4.94 4.97 4.97 0 00-4.87 4.86l-.01.4v4.07c.04 2.9 1.77 4.94 4.15 4.88a4.28 4.28 0 002.74-1.29v1.27H25v-7.27c.05-.53 0-1.98 0-1.98zm-2.95 4.21s0 .27-.06.52c-.2.87-.97 1.52-1.88 1.52-.9 0-1.62-.55-1.84-1.36-.08-.37-.08-.66-.08-.66 0-.02-.05-2.18 0-4.03.01-.3.04-.45.06-.51.2-.92.97-1.61 1.88-1.61.89 0 1.66.65 1.86 1.5.02.1.06.31.06.6v4.03zM80.7.06h-3.07V19.9h3.08V.06zM87.1.06h-3.08V19.9h3.08V.06zM74.58 10.66a4.95 4.95 0 00-4.89-4.94 4.97 4.97 0 00-4.86 4.86l-.02.4v4.07c.02 2.88 1.74 4.92 4.14 4.88a4.28 4.28 0 002.74-1.29v1.27h2.87v-7.27c.06-.53.02-1.98.02-1.98zm-2.95 4.21s0 .27-.06.52c-.2.87-.97 1.52-1.88 1.52-.9 0-1.62-.55-1.83-1.36-.1-.37-.1-.66-.1-.66 0-.02-.03-2.18 0-4.03.02-.3.05-.45.07-.51.2-.92.97-1.61 1.88-1.61.89 0 1.66.65 1.86 1.5.02.1.06.31.06.6v4.03zM56.3 8.87h5.8l-.04 5.34c0 2.6-2.16 5.79-5.83 5.79-3.57 0-5.53-3.24-5.66-5.8a94.43 94.43 0 01-.02-8.3C50.7 3.3 52.68 0 56.21 0c3.76 0 5.86 3.28 5.86 5.93H59c0-1.17-.9-2.75-2.76-2.75-1.68 0-2.51 1.68-2.57 2.69a61.85 61.85 0 000 8.32c.09 1.12.98 2.65 2.66 2.65 1.73 0 2.67-1.42 2.67-2.95 0-1.52.04-1.87.04-1.87h-2.71V8.87h-.03z"/>
    <path fill="#FF641E" d="M45.56 13.9l-1.14 1 1.22 1.48c-.38.3-.93.46-1.43.46a1.88 1.88 0 01-1.91-1.94c0-.6.26-1.1.8-1.48a3.5 3.5 0 011.34-.47 2.82 2.82 0 002.51-2.85 2.81 2.81 0 00-2.77-2.86 2.81 2.81 0 00-2.77 2.86c0 .93.4 1.64.89 2.08a3.23 3.23 0 00-1.57 2.7c0 2 1.34 3.5 3.42 3.5.98 0 1.82-.4 2.41-.86l.73.85 1.14-1-2.87-3.47zm2.88 3.5l-2.87-3.49 2.87 3.49zm-4.26-8.62c.7 0 1.28.6 1.28 1.33a1.3 1.3 0 01-1.28 1.32c-.7 0-1.28-.61-1.28-1.32a1.3 1.3 0 011.28-1.33z"/>
</svg>